<mxfile host="Electron" modified="2023-06-19T16:01:18.536Z" agent="Mozilla/5.0 (Macintosh; Intel Mac OS X 10_15_7) AppleWebKit/537.36 (KHTML, like Gecko) draw.io/21.2.8 Chrome/112.0.5615.165 Electron/24.2.0 Safari/537.36" etag="yo_L16ZLWjJ0MMLfk0eu" version="21.2.8" type="device" pages="14">
  <diagram name="Overview" id="oWB0_mLO_ln0Orr47pxH">
    <mxGraphModel dx="1234" dy="1156" grid="1" gridSize="10" guides="1" tooltips="1" connect="1" arrows="1" fold="1" page="1" pageScale="1" pageWidth="850" pageHeight="1100" math="0" shadow="0">
      <root>
        <mxCell id="0" />
        <mxCell id="1" parent="0" />
        <mxCell id="XXX4deDtFOG7z-5BDPPj-20" style="edgeStyle=orthogonalEdgeStyle;rounded=0;orthogonalLoop=1;jettySize=auto;html=1;exitX=0.5;exitY=1;exitDx=0;exitDy=0;" edge="1" parent="1" source="XXX4deDtFOG7z-5BDPPj-1" target="XXX4deDtFOG7z-5BDPPj-2">
          <mxGeometry relative="1" as="geometry" />
        </mxCell>
        <mxCell id="XXX4deDtFOG7z-5BDPPj-21" style="edgeStyle=orthogonalEdgeStyle;rounded=0;orthogonalLoop=1;jettySize=auto;html=1;exitX=0.5;exitY=1;exitDx=0;exitDy=0;" edge="1" parent="1" source="XXX4deDtFOG7z-5BDPPj-1" target="XXX4deDtFOG7z-5BDPPj-3">
          <mxGeometry relative="1" as="geometry" />
        </mxCell>
        <mxCell id="XXX4deDtFOG7z-5BDPPj-22" style="edgeStyle=orthogonalEdgeStyle;rounded=0;orthogonalLoop=1;jettySize=auto;html=1;exitX=0.5;exitY=1;exitDx=0;exitDy=0;entryX=0.5;entryY=0;entryDx=0;entryDy=0;" edge="1" parent="1" source="XXX4deDtFOG7z-5BDPPj-1" target="XXX4deDtFOG7z-5BDPPj-4">
          <mxGeometry relative="1" as="geometry" />
        </mxCell>
        <mxCell id="XXX4deDtFOG7z-5BDPPj-1" value="Leader" style="rounded=0;whiteSpace=wrap;html=1;" vertex="1" parent="1">
          <mxGeometry x="340" y="240" width="120" height="60" as="geometry" />
        </mxCell>
        <mxCell id="XXX4deDtFOG7z-5BDPPj-2" value="Worker" style="rounded=0;whiteSpace=wrap;html=1;" vertex="1" parent="1">
          <mxGeometry x="180" y="410" width="120" height="60" as="geometry" />
        </mxCell>
        <mxCell id="XXX4deDtFOG7z-5BDPPj-3" value="Worker" style="rounded=0;whiteSpace=wrap;html=1;" vertex="1" parent="1">
          <mxGeometry x="340" y="410" width="120" height="60" as="geometry" />
        </mxCell>
        <mxCell id="XXX4deDtFOG7z-5BDPPj-4" value="Worker" style="rounded=0;whiteSpace=wrap;html=1;" vertex="1" parent="1">
          <mxGeometry x="500" y="410" width="120" height="60" as="geometry" />
        </mxCell>
        <mxCell id="XXX4deDtFOG7z-5BDPPj-9" value="" style="group" vertex="1" connectable="0" parent="1">
          <mxGeometry x="200" y="480" width="120" height="30" as="geometry" />
        </mxCell>
        <mxCell id="XXX4deDtFOG7z-5BDPPj-7" value="" style="rounded=0;whiteSpace=wrap;html=1;" vertex="1" parent="XXX4deDtFOG7z-5BDPPj-9">
          <mxGeometry width="110" height="20" as="geometry" />
        </mxCell>
        <mxCell id="XXX4deDtFOG7z-5BDPPj-8" value="Task" style="rounded=0;whiteSpace=wrap;html=1;" vertex="1" parent="XXX4deDtFOG7z-5BDPPj-9">
          <mxGeometry x="10" y="10" width="110" height="20" as="geometry" />
        </mxCell>
        <mxCell id="XXX4deDtFOG7z-5BDPPj-14" value="" style="group" vertex="1" connectable="0" parent="1">
          <mxGeometry x="350" y="480" width="120" height="30" as="geometry" />
        </mxCell>
        <mxCell id="XXX4deDtFOG7z-5BDPPj-15" value="" style="rounded=0;whiteSpace=wrap;html=1;" vertex="1" parent="XXX4deDtFOG7z-5BDPPj-14">
          <mxGeometry width="110" height="20" as="geometry" />
        </mxCell>
        <mxCell id="XXX4deDtFOG7z-5BDPPj-16" value="Task" style="rounded=0;whiteSpace=wrap;html=1;" vertex="1" parent="XXX4deDtFOG7z-5BDPPj-14">
          <mxGeometry x="10" y="10" width="110" height="20" as="geometry" />
        </mxCell>
        <mxCell id="XXX4deDtFOG7z-5BDPPj-17" value="" style="group" vertex="1" connectable="0" parent="1">
          <mxGeometry x="510" y="480" width="120" height="30" as="geometry" />
        </mxCell>
        <mxCell id="XXX4deDtFOG7z-5BDPPj-18" value="" style="rounded=0;whiteSpace=wrap;html=1;" vertex="1" parent="XXX4deDtFOG7z-5BDPPj-17">
          <mxGeometry width="110" height="20" as="geometry" />
        </mxCell>
        <mxCell id="XXX4deDtFOG7z-5BDPPj-19" value="Task" style="rounded=0;whiteSpace=wrap;html=1;" vertex="1" parent="XXX4deDtFOG7z-5BDPPj-17">
          <mxGeometry x="10" y="10" width="110" height="20" as="geometry" />
        </mxCell>
        <mxCell id="XXX4deDtFOG7z-5BDPPj-23" value="Output" style="shape=cylinder3;whiteSpace=wrap;html=1;boundedLbl=1;backgroundOutline=1;size=15;" vertex="1" parent="1">
          <mxGeometry x="385" y="610" width="60" height="80" as="geometry" />
        </mxCell>
        <mxCell id="XXX4deDtFOG7z-5BDPPj-24" style="edgeStyle=orthogonalEdgeStyle;rounded=0;orthogonalLoop=1;jettySize=auto;html=1;exitX=0.5;exitY=1;exitDx=0;exitDy=0;" edge="1" parent="1" source="XXX4deDtFOG7z-5BDPPj-8" target="XXX4deDtFOG7z-5BDPPj-23">
          <mxGeometry relative="1" as="geometry" />
        </mxCell>
        <mxCell id="XXX4deDtFOG7z-5BDPPj-25" style="edgeStyle=orthogonalEdgeStyle;rounded=0;orthogonalLoop=1;jettySize=auto;html=1;exitX=0.5;exitY=1;exitDx=0;exitDy=0;" edge="1" parent="1" source="XXX4deDtFOG7z-5BDPPj-16" target="XXX4deDtFOG7z-5BDPPj-23">
          <mxGeometry relative="1" as="geometry" />
        </mxCell>
        <mxCell id="XXX4deDtFOG7z-5BDPPj-26" style="edgeStyle=orthogonalEdgeStyle;rounded=0;orthogonalLoop=1;jettySize=auto;html=1;exitX=0.5;exitY=1;exitDx=0;exitDy=0;entryX=0.5;entryY=0;entryDx=0;entryDy=0;entryPerimeter=0;" edge="1" parent="1" source="XXX4deDtFOG7z-5BDPPj-19" target="XXX4deDtFOG7z-5BDPPj-23">
          <mxGeometry relative="1" as="geometry" />
        </mxCell>
      </root>
    </mxGraphModel>
  </diagram>
  <diagram name="State" id="fVfvgPSuUhQM1omz4P9k">
    <mxGraphModel dx="1234" dy="1156" grid="1" gridSize="10" guides="1" tooltips="1" connect="1" arrows="1" fold="1" page="1" pageScale="1" pageWidth="850" pageHeight="1100" math="0" shadow="0">
      <root>
        <mxCell id="doXr5QOEYDihdg-rOevN-0" />
        <mxCell id="7XdSsowx7mbbuxgZTfpZ-8" value="Layers" style="" parent="doXr5QOEYDihdg-rOevN-0" />
        <mxCell id="7XdSsowx7mbbuxgZTfpZ-11" value="" style="group" vertex="1" connectable="0" parent="7XdSsowx7mbbuxgZTfpZ-8">
          <mxGeometry x="110" y="220" width="610" height="160" as="geometry" />
        </mxCell>
        <mxCell id="7XdSsowx7mbbuxgZTfpZ-9" value="" style="rounded=0;whiteSpace=wrap;html=1;dashed=1;fillColor=#f5f5f5;fontColor=#333333;strokeColor=#666666;" vertex="1" parent="7XdSsowx7mbbuxgZTfpZ-11">
          <mxGeometry width="610" height="160" as="geometry" />
        </mxCell>
        <mxCell id="7XdSsowx7mbbuxgZTfpZ-10" value="Leader" style="text;html=1;strokeColor=none;fillColor=none;align=center;verticalAlign=middle;whiteSpace=wrap;rounded=0;fontStyle=1" vertex="1" parent="7XdSsowx7mbbuxgZTfpZ-11">
          <mxGeometry width="50.136986301369866" height="30" as="geometry" />
        </mxCell>
        <mxCell id="7XdSsowx7mbbuxgZTfpZ-12" value="" style="group" vertex="1" connectable="0" parent="7XdSsowx7mbbuxgZTfpZ-8">
          <mxGeometry x="110" y="390" width="610" height="90" as="geometry" />
        </mxCell>
        <mxCell id="7XdSsowx7mbbuxgZTfpZ-13" value="" style="rounded=0;whiteSpace=wrap;html=1;dashed=1;fillColor=#f5f5f5;fontColor=#333333;strokeColor=#666666;" vertex="1" parent="7XdSsowx7mbbuxgZTfpZ-12">
          <mxGeometry width="610" height="90" as="geometry" />
        </mxCell>
        <mxCell id="7XdSsowx7mbbuxgZTfpZ-14" value="Worker" style="text;html=1;strokeColor=none;fillColor=none;align=center;verticalAlign=middle;whiteSpace=wrap;rounded=0;fontStyle=1" vertex="1" parent="7XdSsowx7mbbuxgZTfpZ-12">
          <mxGeometry width="50.136986301369866" height="16.875" as="geometry" />
        </mxCell>
        <mxCell id="7XdSsowx7mbbuxgZTfpZ-15" value="" style="group" vertex="1" connectable="0" parent="7XdSsowx7mbbuxgZTfpZ-8">
          <mxGeometry x="110" y="490" width="610" height="50" as="geometry" />
        </mxCell>
        <mxCell id="7XdSsowx7mbbuxgZTfpZ-16" value="" style="rounded=0;whiteSpace=wrap;html=1;dashed=1;fillColor=#f5f5f5;fontColor=#333333;strokeColor=#666666;" vertex="1" parent="7XdSsowx7mbbuxgZTfpZ-15">
          <mxGeometry width="610" height="50" as="geometry" />
        </mxCell>
        <mxCell id="7XdSsowx7mbbuxgZTfpZ-17" value="Task" style="text;html=1;strokeColor=none;fillColor=none;align=center;verticalAlign=middle;whiteSpace=wrap;rounded=0;fontStyle=1" vertex="1" parent="7XdSsowx7mbbuxgZTfpZ-15">
          <mxGeometry width="50.136986301369866" height="9.375" as="geometry" />
        </mxCell>
        <mxCell id="doXr5QOEYDihdg-rOevN-1" style="locked=1;" parent="doXr5QOEYDihdg-rOevN-0" />
        <mxCell id="doXr5QOEYDihdg-rOevN-2" style="edgeStyle=orthogonalEdgeStyle;rounded=0;orthogonalLoop=1;jettySize=auto;html=1;exitX=0.5;exitY=1;exitDx=0;exitDy=0;" edge="1" parent="doXr5QOEYDihdg-rOevN-1" source="doXr5QOEYDihdg-rOevN-5" target="doXr5QOEYDihdg-rOevN-6">
          <mxGeometry relative="1" as="geometry" />
        </mxCell>
        <mxCell id="doXr5QOEYDihdg-rOevN-3" style="edgeStyle=orthogonalEdgeStyle;rounded=0;orthogonalLoop=1;jettySize=auto;html=1;exitX=0.5;exitY=1;exitDx=0;exitDy=0;" edge="1" parent="doXr5QOEYDihdg-rOevN-1" source="doXr5QOEYDihdg-rOevN-5" target="doXr5QOEYDihdg-rOevN-7">
          <mxGeometry relative="1" as="geometry" />
        </mxCell>
        <mxCell id="doXr5QOEYDihdg-rOevN-4" style="edgeStyle=orthogonalEdgeStyle;rounded=0;orthogonalLoop=1;jettySize=auto;html=1;exitX=0.5;exitY=1;exitDx=0;exitDy=0;entryX=0.5;entryY=0;entryDx=0;entryDy=0;" edge="1" parent="doXr5QOEYDihdg-rOevN-1" source="doXr5QOEYDihdg-rOevN-5" target="doXr5QOEYDihdg-rOevN-8">
          <mxGeometry relative="1" as="geometry" />
        </mxCell>
        <mxCell id="doXr5QOEYDihdg-rOevN-5" value="Leader" style="rounded=0;whiteSpace=wrap;html=1;" vertex="1" parent="doXr5QOEYDihdg-rOevN-1">
          <mxGeometry x="340" y="240" width="120" height="60" as="geometry" />
        </mxCell>
        <mxCell id="doXr5QOEYDihdg-rOevN-6" value="Worker" style="rounded=0;whiteSpace=wrap;html=1;" vertex="1" parent="doXr5QOEYDihdg-rOevN-1">
          <mxGeometry x="180" y="410" width="120" height="60" as="geometry" />
        </mxCell>
        <mxCell id="doXr5QOEYDihdg-rOevN-7" value="Worker" style="rounded=0;whiteSpace=wrap;html=1;" vertex="1" parent="doXr5QOEYDihdg-rOevN-1">
          <mxGeometry x="340" y="410" width="120" height="60" as="geometry" />
        </mxCell>
        <mxCell id="doXr5QOEYDihdg-rOevN-8" value="Worker" style="rounded=0;whiteSpace=wrap;html=1;" vertex="1" parent="doXr5QOEYDihdg-rOevN-1">
          <mxGeometry x="500" y="410" width="120" height="60" as="geometry" />
        </mxCell>
        <mxCell id="doXr5QOEYDihdg-rOevN-9" value="" style="group" vertex="1" connectable="0" parent="doXr5QOEYDihdg-rOevN-1">
          <mxGeometry x="200" y="497" width="120" height="30" as="geometry" />
        </mxCell>
        <mxCell id="doXr5QOEYDihdg-rOevN-10" value="" style="rounded=0;whiteSpace=wrap;html=1;" vertex="1" parent="doXr5QOEYDihdg-rOevN-9">
          <mxGeometry width="110" height="20" as="geometry" />
        </mxCell>
        <mxCell id="doXr5QOEYDihdg-rOevN-11" value="Task" style="rounded=0;whiteSpace=wrap;html=1;" vertex="1" parent="doXr5QOEYDihdg-rOevN-9">
          <mxGeometry x="10" y="10" width="110" height="20" as="geometry" />
        </mxCell>
        <mxCell id="doXr5QOEYDihdg-rOevN-12" value="" style="group" vertex="1" connectable="0" parent="doXr5QOEYDihdg-rOevN-1">
          <mxGeometry x="350" y="497" width="120" height="30" as="geometry" />
        </mxCell>
        <mxCell id="doXr5QOEYDihdg-rOevN-13" value="" style="rounded=0;whiteSpace=wrap;html=1;" vertex="1" parent="doXr5QOEYDihdg-rOevN-12">
          <mxGeometry width="110" height="20" as="geometry" />
        </mxCell>
        <mxCell id="doXr5QOEYDihdg-rOevN-14" value="Task" style="rounded=0;whiteSpace=wrap;html=1;" vertex="1" parent="doXr5QOEYDihdg-rOevN-12">
          <mxGeometry x="10" y="10" width="110" height="20" as="geometry" />
        </mxCell>
        <mxCell id="doXr5QOEYDihdg-rOevN-15" value="" style="group" vertex="1" connectable="0" parent="doXr5QOEYDihdg-rOevN-1">
          <mxGeometry x="510" y="497" width="120" height="30" as="geometry" />
        </mxCell>
        <mxCell id="doXr5QOEYDihdg-rOevN-16" value="" style="rounded=0;whiteSpace=wrap;html=1;" vertex="1" parent="doXr5QOEYDihdg-rOevN-15">
          <mxGeometry width="110" height="20" as="geometry" />
        </mxCell>
        <mxCell id="doXr5QOEYDihdg-rOevN-17" value="Task" style="rounded=0;whiteSpace=wrap;html=1;" vertex="1" parent="doXr5QOEYDihdg-rOevN-15">
          <mxGeometry x="10" y="10" width="110" height="20" as="geometry" />
        </mxCell>
        <mxCell id="doXr5QOEYDihdg-rOevN-18" value="Output" style="shape=cylinder3;whiteSpace=wrap;html=1;boundedLbl=1;backgroundOutline=1;size=15;" vertex="1" parent="doXr5QOEYDihdg-rOevN-1">
          <mxGeometry x="385" y="610" width="60" height="80" as="geometry" />
        </mxCell>
        <mxCell id="doXr5QOEYDihdg-rOevN-19" style="edgeStyle=orthogonalEdgeStyle;rounded=0;orthogonalLoop=1;jettySize=auto;html=1;exitX=0.5;exitY=1;exitDx=0;exitDy=0;" edge="1" parent="doXr5QOEYDihdg-rOevN-1" source="doXr5QOEYDihdg-rOevN-11" target="doXr5QOEYDihdg-rOevN-18">
          <mxGeometry relative="1" as="geometry" />
        </mxCell>
        <mxCell id="doXr5QOEYDihdg-rOevN-20" style="edgeStyle=orthogonalEdgeStyle;rounded=0;orthogonalLoop=1;jettySize=auto;html=1;exitX=0.5;exitY=1;exitDx=0;exitDy=0;" edge="1" parent="doXr5QOEYDihdg-rOevN-1" source="doXr5QOEYDihdg-rOevN-14" target="doXr5QOEYDihdg-rOevN-18">
          <mxGeometry relative="1" as="geometry" />
        </mxCell>
        <mxCell id="doXr5QOEYDihdg-rOevN-21" style="edgeStyle=orthogonalEdgeStyle;rounded=0;orthogonalLoop=1;jettySize=auto;html=1;exitX=0.5;exitY=1;exitDx=0;exitDy=0;entryX=0.5;entryY=0;entryDx=0;entryDy=0;entryPerimeter=0;" edge="1" parent="doXr5QOEYDihdg-rOevN-1" source="doXr5QOEYDihdg-rOevN-17" target="doXr5QOEYDihdg-rOevN-18">
          <mxGeometry relative="1" as="geometry" />
        </mxCell>
        <mxCell id="7XdSsowx7mbbuxgZTfpZ-0" value="States" style="locked=1;" parent="doXr5QOEYDihdg-rOevN-0" />
        <mxCell id="7XdSsowx7mbbuxgZTfpZ-3" value="&amp;nbsp;Workers online" style="rounded=0;whiteSpace=wrap;html=1;fillColor=#f8cecc;strokeColor=#b85450;" vertex="1" parent="7XdSsowx7mbbuxgZTfpZ-0">
          <mxGeometry x="277.5" y="290" width="90" height="20" as="geometry" />
        </mxCell>
        <mxCell id="7XdSsowx7mbbuxgZTfpZ-4" value="" style="rounded=0;whiteSpace=wrap;html=1;fillColor=#f8cecc;strokeColor=#b85450;" vertex="1" parent="7XdSsowx7mbbuxgZTfpZ-0">
          <mxGeometry x="580" y="450" width="100" height="20" as="geometry" />
        </mxCell>
        <mxCell id="7XdSsowx7mbbuxgZTfpZ-6" value="Jobs running" style="rounded=0;whiteSpace=wrap;html=1;fillColor=#f8cecc;strokeColor=#b85450;" vertex="1" parent="7XdSsowx7mbbuxgZTfpZ-0">
          <mxGeometry x="380" y="290" width="90" height="20" as="geometry" />
        </mxCell>
        <mxCell id="7XdSsowx7mbbuxgZTfpZ-7" value="Tasks running" style="rounded=0;whiteSpace=wrap;html=1;fillColor=#f8cecc;strokeColor=#b85450;" vertex="1" parent="7XdSsowx7mbbuxgZTfpZ-0">
          <mxGeometry x="480" y="290" width="80" height="20" as="geometry" />
        </mxCell>
        <mxCell id="kAGpmy-Yl1a8Oy_vVnl0-0" value="Tasks progress" style="rounded=0;whiteSpace=wrap;html=1;fillColor=#f8cecc;strokeColor=#b85450;" vertex="1" parent="7XdSsowx7mbbuxgZTfpZ-0">
          <mxGeometry x="425" y="520" width="85" height="20" as="geometry" />
        </mxCell>
        <mxCell id="kAGpmy-Yl1a8Oy_vVnl0-1" value="Tasks progress" style="rounded=0;whiteSpace=wrap;html=1;fillColor=#f8cecc;strokeColor=#b85450;" vertex="1" parent="7XdSsowx7mbbuxgZTfpZ-0">
          <mxGeometry x="600" y="520" width="85" height="20" as="geometry" />
        </mxCell>
        <mxCell id="kAGpmy-Yl1a8Oy_vVnl0-2" value="Tasks progress" style="rounded=0;whiteSpace=wrap;html=1;fillColor=#f8cecc;strokeColor=#b85450;" vertex="1" parent="7XdSsowx7mbbuxgZTfpZ-0">
          <mxGeometry x="280" y="520" width="85" height="20" as="geometry" />
        </mxCell>
        <mxCell id="kAGpmy-Yl1a8Oy_vVnl0-3" value="Tasks status" style="rounded=0;whiteSpace=wrap;html=1;fillColor=#f8cecc;strokeColor=#b85450;" vertex="1" parent="7XdSsowx7mbbuxgZTfpZ-0">
          <mxGeometry x="590" y="460" width="100" height="20" as="geometry" />
        </mxCell>
        <mxCell id="kAGpmy-Yl1a8Oy_vVnl0-4" value="" style="rounded=0;whiteSpace=wrap;html=1;fillColor=#f8cecc;strokeColor=#b85450;" vertex="1" parent="7XdSsowx7mbbuxgZTfpZ-0">
          <mxGeometry x="400" y="450" width="100" height="20" as="geometry" />
        </mxCell>
        <mxCell id="kAGpmy-Yl1a8Oy_vVnl0-5" value="Tasks status" style="rounded=0;whiteSpace=wrap;html=1;fillColor=#f8cecc;strokeColor=#b85450;" vertex="1" parent="7XdSsowx7mbbuxgZTfpZ-0">
          <mxGeometry x="410" y="460" width="100" height="20" as="geometry" />
        </mxCell>
        <mxCell id="kAGpmy-Yl1a8Oy_vVnl0-6" value="" style="rounded=0;whiteSpace=wrap;html=1;fillColor=#f8cecc;strokeColor=#b85450;" vertex="1" parent="7XdSsowx7mbbuxgZTfpZ-0">
          <mxGeometry x="240" y="455" width="100" height="20" as="geometry" />
        </mxCell>
        <mxCell id="kAGpmy-Yl1a8Oy_vVnl0-7" value="Tasks status" style="rounded=0;whiteSpace=wrap;html=1;fillColor=#f8cecc;strokeColor=#b85450;" vertex="1" parent="7XdSsowx7mbbuxgZTfpZ-0">
          <mxGeometry x="250" y="465" width="100" height="20" as="geometry" />
        </mxCell>
      </root>
    </mxGraphModel>
  </diagram>
  <diagram name="Concistency" id="a9cjOLq4IlsUzIOoZhjw">
    <mxGraphModel dx="2084" dy="1156" grid="1" gridSize="10" guides="1" tooltips="1" connect="1" arrows="1" fold="1" page="1" pageScale="1" pageWidth="850" pageHeight="1100" math="0" shadow="0">
      <root>
        <mxCell id="-cn7zukRNcUk2ccj7V02-0" />
        <mxCell id="-cn7zukRNcUk2ccj7V02-1" style="locked=1;" parent="-cn7zukRNcUk2ccj7V02-0" />
        <mxCell id="-cn7zukRNcUk2ccj7V02-2" value="Leader" style="rounded=0;whiteSpace=wrap;html=1;fontStyle=1" vertex="1" parent="-cn7zukRNcUk2ccj7V02-1">
          <mxGeometry x="75" y="200" width="140" height="30" as="geometry" />
        </mxCell>
        <mxCell id="-cn7zukRNcUk2ccj7V02-3" value="Worker" style="rounded=0;whiteSpace=wrap;html=1;fontStyle=1" vertex="1" parent="-cn7zukRNcUk2ccj7V02-1">
          <mxGeometry x="265" y="200" width="140" height="30" as="geometry" />
        </mxCell>
        <mxCell id="-cn7zukRNcUk2ccj7V02-4" value="File System" style="rounded=0;whiteSpace=wrap;html=1;fontStyle=1" vertex="1" parent="-cn7zukRNcUk2ccj7V02-1">
          <mxGeometry x="455" y="200" width="140" height="30" as="geometry" />
        </mxCell>
        <mxCell id="-cn7zukRNcUk2ccj7V02-5" value="" style="rounded=0;whiteSpace=wrap;html=1;fillColor=#f5f5f5;strokeColor=#666666;fontColor=#333333;" vertex="1" parent="-cn7zukRNcUk2ccj7V02-1">
          <mxGeometry x="50" y="230" width="190" height="700" as="geometry" />
        </mxCell>
        <mxCell id="-cn7zukRNcUk2ccj7V02-6" value="" style="rounded=0;whiteSpace=wrap;html=1;fillColor=#fff2cc;strokeColor=#d6b656;" vertex="1" parent="-cn7zukRNcUk2ccj7V02-1">
          <mxGeometry x="240" y="230" width="190" height="700" as="geometry" />
        </mxCell>
        <mxCell id="-cn7zukRNcUk2ccj7V02-7" value="" style="rounded=0;whiteSpace=wrap;html=1;fillColor=#ffe6cc;strokeColor=#d79b00;" vertex="1" parent="-cn7zukRNcUk2ccj7V02-1">
          <mxGeometry x="430" y="230" width="190" height="700" as="geometry" />
        </mxCell>
        <mxCell id="-cn7zukRNcUk2ccj7V02-8" value="Untitled Layer" style="" parent="-cn7zukRNcUk2ccj7V02-0" />
        <mxCell id="-cn7zukRNcUk2ccj7V02-9" style="edgeStyle=orthogonalEdgeStyle;rounded=0;orthogonalLoop=1;jettySize=auto;html=1;exitX=1;exitY=0.25;exitDx=0;exitDy=0;entryX=0;entryY=0.25;entryDx=0;entryDy=0;" edge="1" parent="-cn7zukRNcUk2ccj7V02-8" source="-cn7zukRNcUk2ccj7V02-12" target="-cn7zukRNcUk2ccj7V02-17">
          <mxGeometry relative="1" as="geometry" />
        </mxCell>
        <mxCell id="mjUu_rnW_9MiE3YdO_h_-3" value="Get state" style="edgeLabel;html=1;align=center;verticalAlign=middle;resizable=0;points=[];" vertex="1" connectable="0" parent="-cn7zukRNcUk2ccj7V02-9">
          <mxGeometry x="-0.26" y="-1" relative="1" as="geometry">
            <mxPoint as="offset" />
          </mxGeometry>
        </mxCell>
        <mxCell id="-cn7zukRNcUk2ccj7V02-11" style="edgeStyle=orthogonalEdgeStyle;rounded=0;orthogonalLoop=1;jettySize=auto;html=1;exitX=0.5;exitY=1;exitDx=0;exitDy=0;entryX=0.5;entryY=0;entryDx=0;entryDy=0;" edge="1" parent="-cn7zukRNcUk2ccj7V02-8" source="-cn7zukRNcUk2ccj7V02-12" target="mjUu_rnW_9MiE3YdO_h_-6">
          <mxGeometry relative="1" as="geometry">
            <mxPoint x="140" y="350" as="targetPoint" />
            <Array as="points">
              <mxPoint x="140" y="330" />
              <mxPoint x="60" y="330" />
              <mxPoint x="60" y="440" />
              <mxPoint x="140" y="440" />
            </Array>
          </mxGeometry>
        </mxCell>
        <mxCell id="-cn7zukRNcUk2ccj7V02-12" value="Check job state across workers" style="rounded=1;whiteSpace=wrap;html=1;" vertex="1" parent="-cn7zukRNcUk2ccj7V02-8">
          <mxGeometry x="80" y="260" width="120" height="60" as="geometry" />
        </mxCell>
        <mxCell id="-cn7zukRNcUk2ccj7V02-13" style="edgeStyle=orthogonalEdgeStyle;rounded=0;orthogonalLoop=1;jettySize=auto;html=1;exitX=0;exitY=0.75;exitDx=0;exitDy=0;entryX=1;entryY=0.75;entryDx=0;entryDy=0;" edge="1" parent="-cn7zukRNcUk2ccj7V02-8" source="-cn7zukRNcUk2ccj7V02-17" target="-cn7zukRNcUk2ccj7V02-12">
          <mxGeometry relative="1" as="geometry" />
        </mxCell>
        <mxCell id="mjUu_rnW_9MiE3YdO_h_-4" value="State" style="edgeLabel;html=1;align=center;verticalAlign=middle;resizable=0;points=[];" vertex="1" connectable="0" parent="-cn7zukRNcUk2ccj7V02-13">
          <mxGeometry x="0.2" relative="1" as="geometry">
            <mxPoint x="1" as="offset" />
          </mxGeometry>
        </mxCell>
        <mxCell id="-cn7zukRNcUk2ccj7V02-17" value="GET /worker/state" style="rounded=1;whiteSpace=wrap;html=1;" vertex="1" parent="-cn7zukRNcUk2ccj7V02-8">
          <mxGeometry x="272.5" y="260" width="120" height="60" as="geometry" />
        </mxCell>
        <mxCell id="mjUu_rnW_9MiE3YdO_h_-1" style="edgeStyle=orthogonalEdgeStyle;rounded=0;orthogonalLoop=1;jettySize=auto;html=1;jumpStyle=arc;" edge="1" parent="-cn7zukRNcUk2ccj7V02-8" source="mjUu_rnW_9MiE3YdO_h_-0" target="-cn7zukRNcUk2ccj7V02-12">
          <mxGeometry relative="1" as="geometry" />
        </mxCell>
        <mxCell id="mjUu_rnW_9MiE3YdO_h_-2" value="Get data" style="edgeLabel;html=1;align=center;verticalAlign=middle;resizable=0;points=[];" vertex="1" connectable="0" parent="mjUu_rnW_9MiE3YdO_h_-1">
          <mxGeometry x="-0.3667" y="1" relative="1" as="geometry">
            <mxPoint x="-47" y="1" as="offset" />
          </mxGeometry>
        </mxCell>
        <mxCell id="mjUu_rnW_9MiE3YdO_h_-0" value="Actor A" style="shape=umlActor;verticalLabelPosition=bottom;verticalAlign=top;html=1;outlineConnect=0;" vertex="1" parent="-cn7zukRNcUk2ccj7V02-8">
          <mxGeometry x="-130" y="260" width="30" height="60" as="geometry" />
        </mxCell>
        <mxCell id="mjUu_rnW_9MiE3YdO_h_-5" value="GET /worker/state" style="rounded=1;whiteSpace=wrap;html=1;" vertex="1" parent="-cn7zukRNcUk2ccj7V02-8">
          <mxGeometry x="280" y="270" width="120" height="60" as="geometry" />
        </mxCell>
        <mxCell id="mjUu_rnW_9MiE3YdO_h_-9" style="edgeStyle=orthogonalEdgeStyle;rounded=0;orthogonalLoop=1;jettySize=auto;html=1;exitX=1;exitY=0.25;exitDx=0;exitDy=0;entryX=0;entryY=0.25;entryDx=0;entryDy=0;" edge="1" parent="-cn7zukRNcUk2ccj7V02-8" source="mjUu_rnW_9MiE3YdO_h_-6" target="mjUu_rnW_9MiE3YdO_h_-7">
          <mxGeometry relative="1" as="geometry" />
        </mxCell>
        <mxCell id="mjUu_rnW_9MiE3YdO_h_-11" value="Read" style="edgeLabel;html=1;align=center;verticalAlign=middle;resizable=0;points=[];" vertex="1" connectable="0" parent="mjUu_rnW_9MiE3YdO_h_-9">
          <mxGeometry x="-0.5" relative="1" as="geometry">
            <mxPoint as="offset" />
          </mxGeometry>
        </mxCell>
        <mxCell id="mjUu_rnW_9MiE3YdO_h_-6" value="All tasks completed?" style="rounded=1;whiteSpace=wrap;html=1;" vertex="1" parent="-cn7zukRNcUk2ccj7V02-8">
          <mxGeometry x="80" y="450" width="120" height="60" as="geometry" />
        </mxCell>
        <mxCell id="mjUu_rnW_9MiE3YdO_h_-10" style="edgeStyle=orthogonalEdgeStyle;rounded=0;orthogonalLoop=1;jettySize=auto;html=1;exitX=0;exitY=0.75;exitDx=0;exitDy=0;" edge="1" parent="-cn7zukRNcUk2ccj7V02-8" source="mjUu_rnW_9MiE3YdO_h_-7" target="mjUu_rnW_9MiE3YdO_h_-6">
          <mxGeometry relative="1" as="geometry" />
        </mxCell>
        <mxCell id="mjUu_rnW_9MiE3YdO_h_-7" value="Data files" style="rounded=1;whiteSpace=wrap;html=1;" vertex="1" parent="-cn7zukRNcUk2ccj7V02-8">
          <mxGeometry x="470" y="440" width="120" height="60" as="geometry" />
        </mxCell>
        <mxCell id="mjUu_rnW_9MiE3YdO_h_-8" value="Data files" style="rounded=1;whiteSpace=wrap;html=1;" vertex="1" parent="-cn7zukRNcUk2ccj7V02-8">
          <mxGeometry x="480" y="450" width="120" height="60" as="geometry" />
        </mxCell>
        <mxCell id="mjUu_rnW_9MiE3YdO_h_-17" style="edgeStyle=orthogonalEdgeStyle;rounded=0;orthogonalLoop=1;jettySize=auto;html=1;entryX=0.5;entryY=1;entryDx=0;entryDy=0;startArrow=classic;startFill=1;endArrow=none;endFill=0;" edge="1" parent="-cn7zukRNcUk2ccj7V02-8" source="mjUu_rnW_9MiE3YdO_h_-14" target="mjUu_rnW_9MiE3YdO_h_-6">
          <mxGeometry relative="1" as="geometry" />
        </mxCell>
        <mxCell id="mjUu_rnW_9MiE3YdO_h_-18" value="Data" style="edgeLabel;html=1;align=center;verticalAlign=middle;resizable=0;points=[];" vertex="1" connectable="0" parent="mjUu_rnW_9MiE3YdO_h_-17">
          <mxGeometry x="0.87" y="1" relative="1" as="geometry">
            <mxPoint as="offset" />
          </mxGeometry>
        </mxCell>
        <mxCell id="mjUu_rnW_9MiE3YdO_h_-14" value="Actor A" style="shape=umlActor;verticalLabelPosition=bottom;verticalAlign=top;html=1;outlineConnect=0;" vertex="1" parent="-cn7zukRNcUk2ccj7V02-8">
          <mxGeometry x="-50" y="500" width="30" height="60" as="geometry" />
        </mxCell>
        <mxCell id="mjUu_rnW_9MiE3YdO_h_-27" value="Start job" style="edgeStyle=orthogonalEdgeStyle;rounded=0;orthogonalLoop=1;jettySize=auto;html=1;entryX=0;entryY=0.5;entryDx=0;entryDy=0;jumpStyle=arc;" edge="1" parent="-cn7zukRNcUk2ccj7V02-8" source="mjUu_rnW_9MiE3YdO_h_-24" target="mjUu_rnW_9MiE3YdO_h_-26">
          <mxGeometry x="-0.4" relative="1" as="geometry">
            <Array as="points">
              <mxPoint x="20" y="320" />
              <mxPoint x="20" y="390" />
            </Array>
            <mxPoint as="offset" />
          </mxGeometry>
        </mxCell>
        <mxCell id="mjUu_rnW_9MiE3YdO_h_-24" value="Actor B" style="shape=umlActor;verticalLabelPosition=bottom;verticalAlign=top;html=1;outlineConnect=0;" vertex="1" parent="-cn7zukRNcUk2ccj7V02-8">
          <mxGeometry x="-70" y="260" width="30" height="60" as="geometry" />
        </mxCell>
        <mxCell id="mjUu_rnW_9MiE3YdO_h_-30" style="edgeStyle=orthogonalEdgeStyle;rounded=0;orthogonalLoop=1;jettySize=auto;html=1;exitX=0.5;exitY=1;exitDx=0;exitDy=0;entryX=0;entryY=0.5;entryDx=0;entryDy=0;jumpStyle=arc;" edge="1" parent="-cn7zukRNcUk2ccj7V02-8" source="mjUu_rnW_9MiE3YdO_h_-26" target="mjUu_rnW_9MiE3YdO_h_-28">
          <mxGeometry relative="1" as="geometry">
            <Array as="points">
              <mxPoint x="140" y="430" />
              <mxPoint x="220" y="430" />
              <mxPoint x="220" y="570" />
            </Array>
          </mxGeometry>
        </mxCell>
        <mxCell id="mjUu_rnW_9MiE3YdO_h_-26" value="Start job" style="rounded=1;whiteSpace=wrap;html=1;" vertex="1" parent="-cn7zukRNcUk2ccj7V02-8">
          <mxGeometry x="80" y="360" width="120" height="60" as="geometry" />
        </mxCell>
        <mxCell id="mjUu_rnW_9MiE3YdO_h_-28" value="GET /worker/state" style="rounded=1;whiteSpace=wrap;html=1;" vertex="1" parent="-cn7zukRNcUk2ccj7V02-8">
          <mxGeometry x="268.75" y="540" width="120" height="60" as="geometry" />
        </mxCell>
        <mxCell id="mjUu_rnW_9MiE3YdO_h_-29" value="POST /worker/start" style="rounded=1;whiteSpace=wrap;html=1;" vertex="1" parent="-cn7zukRNcUk2ccj7V02-8">
          <mxGeometry x="276.25" y="550" width="120" height="60" as="geometry" />
        </mxCell>
        <mxCell id="mjUu_rnW_9MiE3YdO_h_-31" value="Actor B" style="shape=umlActor;verticalLabelPosition=bottom;verticalAlign=top;html=1;outlineConnect=0;" vertex="1" parent="-cn7zukRNcUk2ccj7V02-8">
          <mxGeometry x="-50" y="610" width="30" height="60" as="geometry" />
        </mxCell>
        <mxCell id="mjUu_rnW_9MiE3YdO_h_-32" value="..." style="rounded=0;whiteSpace=wrap;html=1;" vertex="1" parent="-cn7zukRNcUk2ccj7V02-8">
          <mxGeometry x="170" y="630" width="120" height="60" as="geometry" />
        </mxCell>
        <mxCell id="mjUu_rnW_9MiE3YdO_h_-33" value="" style="shape=flexArrow;endArrow=classic;html=1;rounded=0;" edge="1" parent="-cn7zukRNcUk2ccj7V02-8">
          <mxGeometry width="50" height="50" relative="1" as="geometry">
            <mxPoint x="-150" y="235" as="sourcePoint" />
            <mxPoint x="-150" y="925" as="targetPoint" />
          </mxGeometry>
        </mxCell>
        <mxCell id="mjUu_rnW_9MiE3YdO_h_-34" value="Time" style="text;html=1;strokeColor=none;fillColor=none;align=center;verticalAlign=middle;whiteSpace=wrap;rounded=0;" vertex="1" parent="-cn7zukRNcUk2ccj7V02-8">
          <mxGeometry x="-200" y="530" width="60" height="30" as="geometry" />
        </mxCell>
      </root>
    </mxGraphModel>
  </diagram>
  <diagram id="jeJA-0Ko2aMIKM4bQ49g" name="Consitency 2">
    <mxGraphModel dx="1452" dy="1360" grid="1" gridSize="10" guides="1" tooltips="1" connect="1" arrows="1" fold="1" page="1" pageScale="1" pageWidth="850" pageHeight="1100" math="0" shadow="0">
      <root>
        <mxCell id="0" />
        <mxCell id="1" parent="0" />
        <mxCell id="tUjJhjqYKhJLqPEB4TUt-1" value="Worker A writes file 1/2" style="rounded=1;whiteSpace=wrap;html=1;fillColor=#f5f5f5;fontColor=#333333;strokeColor=#666666;" vertex="1" parent="1">
          <mxGeometry x="140" y="280" width="120" height="60" as="geometry" />
        </mxCell>
        <mxCell id="tUjJhjqYKhJLqPEB4TUt-2" value="Worker B writes file 1/&lt;b&gt;&lt;font color=&quot;#ff3c00&quot;&gt;3&lt;/font&gt;&lt;/b&gt;" style="rounded=1;whiteSpace=wrap;html=1;fillColor=#f5f5f5;fontColor=#333333;strokeColor=#666666;" vertex="1" parent="1">
          <mxGeometry x="547" y="280" width="120" height="60" as="geometry" />
        </mxCell>
        <mxCell id="tUjJhjqYKhJLqPEB4TUt-3" value="File 1A" style="rounded=0;whiteSpace=wrap;html=1;fillColor=#dae8fc;strokeColor=#6c8ebf;" vertex="1" parent="1">
          <mxGeometry x="140" y="360" width="120" height="30" as="geometry" />
        </mxCell>
        <mxCell id="tUjJhjqYKhJLqPEB4TUt-4" value="File 1B" style="rounded=0;whiteSpace=wrap;html=1;fillColor=#dae8fc;strokeColor=#6c8ebf;" vertex="1" parent="1">
          <mxGeometry x="590" y="360" width="120" height="30" as="geometry" />
        </mxCell>
        <mxCell id="tUjJhjqYKhJLqPEB4TUt-10" value="No reassignment possible, Leader marks job as failed" style="rounded=1;whiteSpace=wrap;html=1;fillColor=#e1d5e7;strokeColor=#9673a6;" vertex="1" parent="1">
          <mxGeometry x="1089" y="280" width="120" height="60" as="geometry" />
        </mxCell>
        <mxCell id="tUjJhjqYKhJLqPEB4TUt-11" value="Job didn&#39;t complete, no data available" style="rounded=1;whiteSpace=wrap;html=1;fillColor=#e1d5e7;strokeColor=#9673a6;" vertex="1" parent="1">
          <mxGeometry x="1360" y="280" width="120" height="60" as="geometry" />
        </mxCell>
        <mxCell id="tUjJhjqYKhJLqPEB4TUt-12" value="Leader re-assigns worker A&#39;s jobs to B" style="rounded=1;whiteSpace=wrap;html=1;fillColor=#e1d5e7;strokeColor=#9673a6;" vertex="1" parent="1">
          <mxGeometry x="411" y="280" width="120" height="60" as="geometry" />
        </mxCell>
        <mxCell id="tUjJhjqYKhJLqPEB4TUt-14" value="Requests data" style="shape=umlActor;verticalLabelPosition=bottom;verticalAlign=top;html=1;outlineConnect=0;" vertex="1" parent="1">
          <mxGeometry x="727" y="280" width="30" height="60" as="geometry" />
        </mxCell>
        <mxCell id="tUjJhjqYKhJLqPEB4TUt-16" value="" style="group" vertex="1" connectable="0" parent="1">
          <mxGeometry x="277.57359312880715" y="280" width="147.42640687119285" height="86.56640687119284" as="geometry" />
        </mxCell>
        <mxCell id="tUjJhjqYKhJLqPEB4TUt-6" value="Worker A&lt;br&gt;dies" style="rounded=1;whiteSpace=wrap;html=1;fillColor=#f5f5f5;fontColor=#333333;strokeColor=#666666;" vertex="1" parent="tUjJhjqYKhJLqPEB4TUt-16">
          <mxGeometry x="-1.573593128807147" width="120" height="60" as="geometry" />
        </mxCell>
        <mxCell id="tUjJhjqYKhJLqPEB4TUt-7" value="" style="shape=cross;whiteSpace=wrap;html=1;fillColor=#f8cecc;strokeColor=#b85450;rotation=45;" vertex="1" parent="tUjJhjqYKhJLqPEB4TUt-16">
          <mxGeometry x="-7.573593128807147" y="13.279999999999987" width="60" height="60" as="geometry" />
        </mxCell>
        <mxCell id="tUjJhjqYKhJLqPEB4TUt-17" value="No data available yet" style="rounded=1;whiteSpace=wrap;html=1;fillColor=#e1d5e7;strokeColor=#9673a6;" vertex="1" parent="1">
          <mxGeometry x="800" y="280" width="120" height="60" as="geometry" />
        </mxCell>
        <mxCell id="tUjJhjqYKhJLqPEB4TUt-19" value="Requests data" style="shape=umlActor;verticalLabelPosition=bottom;verticalAlign=top;html=1;outlineConnect=0;" vertex="1" parent="1">
          <mxGeometry x="1269" y="280" width="30" height="60" as="geometry" />
        </mxCell>
        <mxCell id="tUjJhjqYKhJLqPEB4TUt-20" value="Time" style="shape=flexArrow;endArrow=classic;html=1;rounded=0;" edge="1" parent="1">
          <mxGeometry width="50" height="50" relative="1" as="geometry">
            <mxPoint x="150" y="430" as="sourcePoint" />
            <mxPoint x="1490" y="430" as="targetPoint" />
          </mxGeometry>
        </mxCell>
        <mxCell id="tUjJhjqYKhJLqPEB4TUt-21" value="" style="group" vertex="1" connectable="0" parent="1">
          <mxGeometry x="950.0035931288071" y="280" width="142.42640687119274" height="86.56640687119284" as="geometry" />
        </mxCell>
        <mxCell id="tUjJhjqYKhJLqPEB4TUt-8" value="Worker B &lt;br&gt;dies" style="rounded=1;whiteSpace=wrap;html=1;fillColor=#f5f5f5;fontColor=#333333;strokeColor=#666666;" vertex="1" parent="tUjJhjqYKhJLqPEB4TUt-21">
          <mxGeometry x="2.996406871192903" width="120" height="60" as="geometry" />
        </mxCell>
        <mxCell id="tUjJhjqYKhJLqPEB4TUt-9" value="" style="shape=cross;whiteSpace=wrap;html=1;fillColor=#f8cecc;strokeColor=#b85450;rotation=45;direction=south;" vertex="1" parent="tUjJhjqYKhJLqPEB4TUt-21">
          <mxGeometry x="-10.003593128807147" y="13.279999999999987" width="60" height="60" as="geometry" />
        </mxCell>
      </root>
    </mxGraphModel>
  </diagram>
  <diagram id="D4Zb-zaxt9MBnISIU09e" name="Leader Status">
    <mxGraphModel dx="1234" dy="1156" grid="1" gridSize="10" guides="1" tooltips="1" connect="1" arrows="1" fold="1" page="1" pageScale="1" pageWidth="850" pageHeight="1100" math="0" shadow="0">
      <root>
        <mxCell id="0" />
        <mxCell id="1" style="locked=1;" parent="0" />
        <mxCell id="ILK9dVPlmGg10wJcyv3i-18" value="Leader" style="rounded=0;whiteSpace=wrap;html=1;fontStyle=1" vertex="1" parent="1">
          <mxGeometry x="75" y="200" width="140" height="30" as="geometry" />
        </mxCell>
        <mxCell id="ILK9dVPlmGg10wJcyv3i-19" value="Cache" style="rounded=0;whiteSpace=wrap;html=1;fontStyle=1" vertex="1" parent="1">
          <mxGeometry x="265" y="200" width="140" height="30" as="geometry" />
        </mxCell>
        <mxCell id="ILK9dVPlmGg10wJcyv3i-20" value="Workers" style="rounded=0;whiteSpace=wrap;html=1;fontStyle=1" vertex="1" parent="1">
          <mxGeometry x="455" y="200" width="140" height="30" as="geometry" />
        </mxCell>
        <mxCell id="ILK9dVPlmGg10wJcyv3i-21" value="" style="rounded=0;whiteSpace=wrap;html=1;fillColor=#f5f5f5;strokeColor=#666666;fontColor=#333333;" vertex="1" parent="1">
          <mxGeometry x="50" y="230" width="190" height="700" as="geometry" />
        </mxCell>
        <mxCell id="ILK9dVPlmGg10wJcyv3i-22" value="" style="rounded=0;whiteSpace=wrap;html=1;fillColor=#fff2cc;strokeColor=#d6b656;" vertex="1" parent="1">
          <mxGeometry x="240" y="230" width="190" height="700" as="geometry" />
        </mxCell>
        <mxCell id="ILK9dVPlmGg10wJcyv3i-23" value="" style="rounded=0;whiteSpace=wrap;html=1;fillColor=#ffe6cc;strokeColor=#d79b00;" vertex="1" parent="1">
          <mxGeometry x="430" y="230" width="190" height="700" as="geometry" />
        </mxCell>
        <mxCell id="ILK9dVPlmGg10wJcyv3i-24" value="Untitled Layer" parent="0" />
        <mxCell id="ILK9dVPlmGg10wJcyv3i-27" style="edgeStyle=orthogonalEdgeStyle;rounded=0;orthogonalLoop=1;jettySize=auto;html=1;exitX=1;exitY=0.25;exitDx=0;exitDy=0;entryX=0;entryY=0.25;entryDx=0;entryDy=0;" edge="1" parent="ILK9dVPlmGg10wJcyv3i-24" source="ILK9dVPlmGg10wJcyv3i-25" target="ILK9dVPlmGg10wJcyv3i-26">
          <mxGeometry relative="1" as="geometry" />
        </mxCell>
        <mxCell id="ILK9dVPlmGg10wJcyv3i-29" value="GET" style="edgeLabel;html=1;align=center;verticalAlign=middle;resizable=0;points=[];" vertex="1" connectable="0" parent="ILK9dVPlmGg10wJcyv3i-27">
          <mxGeometry x="-0.8519" y="1" relative="1" as="geometry">
            <mxPoint as="offset" />
          </mxGeometry>
        </mxCell>
        <mxCell id="ILK9dVPlmGg10wJcyv3i-37" style="edgeStyle=orthogonalEdgeStyle;rounded=0;orthogonalLoop=1;jettySize=auto;html=1;exitX=0.5;exitY=1;exitDx=0;exitDy=0;entryX=0.5;entryY=0;entryDx=0;entryDy=0;" edge="1" parent="ILK9dVPlmGg10wJcyv3i-24" source="ILK9dVPlmGg10wJcyv3i-25" target="ILK9dVPlmGg10wJcyv3i-32">
          <mxGeometry relative="1" as="geometry" />
        </mxCell>
        <mxCell id="ILK9dVPlmGg10wJcyv3i-25" value="Check worker state" style="rounded=1;whiteSpace=wrap;html=1;" vertex="1" parent="ILK9dVPlmGg10wJcyv3i-24">
          <mxGeometry x="80" y="260" width="120" height="60" as="geometry" />
        </mxCell>
        <mxCell id="ILK9dVPlmGg10wJcyv3i-28" style="edgeStyle=orthogonalEdgeStyle;rounded=0;orthogonalLoop=1;jettySize=auto;html=1;exitX=0;exitY=0.75;exitDx=0;exitDy=0;entryX=1;entryY=0.75;entryDx=0;entryDy=0;" edge="1" parent="ILK9dVPlmGg10wJcyv3i-24" source="ILK9dVPlmGg10wJcyv3i-26" target="ILK9dVPlmGg10wJcyv3i-25">
          <mxGeometry relative="1" as="geometry" />
        </mxCell>
        <mxCell id="ILK9dVPlmGg10wJcyv3i-30" value="WorkerState" style="edgeLabel;html=1;align=center;verticalAlign=middle;resizable=0;points=[];" vertex="1" connectable="0" parent="ILK9dVPlmGg10wJcyv3i-28">
          <mxGeometry x="-0.763" y="1" relative="1" as="geometry">
            <mxPoint as="offset" />
          </mxGeometry>
        </mxCell>
        <mxCell id="ILK9dVPlmGg10wJcyv3i-44" style="edgeStyle=orthogonalEdgeStyle;rounded=0;orthogonalLoop=1;jettySize=auto;html=1;exitX=0;exitY=0.75;exitDx=0;exitDy=0;entryX=0.5;entryY=0;entryDx=0;entryDy=0;dashed=1;" edge="1" parent="ILK9dVPlmGg10wJcyv3i-24" source="ILK9dVPlmGg10wJcyv3i-26" target="ILK9dVPlmGg10wJcyv3i-39">
          <mxGeometry relative="1" as="geometry">
            <Array as="points">
              <mxPoint x="470" y="430" />
              <mxPoint x="140" y="430" />
            </Array>
          </mxGeometry>
        </mxCell>
        <mxCell id="ILK9dVPlmGg10wJcyv3i-45" value="No response" style="edgeLabel;html=1;align=center;verticalAlign=middle;resizable=0;points=[];fontStyle=2" vertex="1" connectable="0" parent="ILK9dVPlmGg10wJcyv3i-44">
          <mxGeometry x="0.8021" y="2" relative="1" as="geometry">
            <mxPoint x="303" y="-102" as="offset" />
          </mxGeometry>
        </mxCell>
        <mxCell id="ILK9dVPlmGg10wJcyv3i-26" value="GET /worker/state" style="rounded=1;whiteSpace=wrap;html=1;" vertex="1" parent="ILK9dVPlmGg10wJcyv3i-24">
          <mxGeometry x="470" y="260" width="120" height="60" as="geometry" />
        </mxCell>
        <mxCell id="ILK9dVPlmGg10wJcyv3i-31" value="Slots" style="rounded=1;whiteSpace=wrap;html=1;" vertex="1" parent="ILK9dVPlmGg10wJcyv3i-24">
          <mxGeometry x="270" y="350" width="120" height="30" as="geometry" />
        </mxCell>
        <mxCell id="ILK9dVPlmGg10wJcyv3i-33" value="update" style="edgeStyle=orthogonalEdgeStyle;rounded=0;orthogonalLoop=1;jettySize=auto;html=1;exitX=1;exitY=0.25;exitDx=0;exitDy=0;entryX=0;entryY=0.25;entryDx=0;entryDy=0;" edge="1" parent="ILK9dVPlmGg10wJcyv3i-24" source="ILK9dVPlmGg10wJcyv3i-32" target="ILK9dVPlmGg10wJcyv3i-31">
          <mxGeometry relative="1" as="geometry" />
        </mxCell>
        <mxCell id="ILK9dVPlmGg10wJcyv3i-35" value="update" style="edgeStyle=orthogonalEdgeStyle;rounded=0;orthogonalLoop=1;jettySize=auto;html=1;exitX=1;exitY=0.75;exitDx=0;exitDy=0;entryX=0;entryY=0.25;entryDx=0;entryDy=0;" edge="1" parent="ILK9dVPlmGg10wJcyv3i-24" source="ILK9dVPlmGg10wJcyv3i-32" target="ILK9dVPlmGg10wJcyv3i-34">
          <mxGeometry relative="1" as="geometry" />
        </mxCell>
        <mxCell id="ILK9dVPlmGg10wJcyv3i-56" style="edgeStyle=orthogonalEdgeStyle;rounded=0;orthogonalLoop=1;jettySize=auto;html=1;exitX=0.25;exitY=1;exitDx=0;exitDy=0;entryX=0.5;entryY=0;entryDx=0;entryDy=0;" edge="1" parent="ILK9dVPlmGg10wJcyv3i-24" source="ILK9dVPlmGg10wJcyv3i-32" target="ILK9dVPlmGg10wJcyv3i-53">
          <mxGeometry relative="1" as="geometry">
            <Array as="points">
              <mxPoint x="110" y="430" />
              <mxPoint x="70" y="430" />
              <mxPoint x="70" y="540" />
              <mxPoint x="140" y="540" />
            </Array>
          </mxGeometry>
        </mxCell>
        <mxCell id="ILK9dVPlmGg10wJcyv3i-57" value="Open tasks&lt;br&gt;&amp;amp; open slots?" style="edgeLabel;html=1;align=center;verticalAlign=middle;resizable=0;points=[];" vertex="1" connectable="0" parent="ILK9dVPlmGg10wJcyv3i-56">
          <mxGeometry x="-0.6621" y="2" relative="1" as="geometry">
            <mxPoint x="-16" y="-2" as="offset" />
          </mxGeometry>
        </mxCell>
        <mxCell id="ILK9dVPlmGg10wJcyv3i-32" value="Store state" style="rounded=1;whiteSpace=wrap;html=1;" vertex="1" parent="ILK9dVPlmGg10wJcyv3i-24">
          <mxGeometry x="80" y="350" width="120" height="60" as="geometry" />
        </mxCell>
        <mxCell id="ILK9dVPlmGg10wJcyv3i-34" value="Tasks" style="rounded=1;whiteSpace=wrap;html=1;" vertex="1" parent="ILK9dVPlmGg10wJcyv3i-24">
          <mxGeometry x="270" y="390" width="120" height="30" as="geometry" />
        </mxCell>
        <mxCell id="ILK9dVPlmGg10wJcyv3i-47" style="edgeStyle=orthogonalEdgeStyle;rounded=0;orthogonalLoop=1;jettySize=auto;html=1;exitX=1;exitY=0.25;exitDx=0;exitDy=0;entryX=0;entryY=0.25;entryDx=0;entryDy=0;" edge="1" parent="ILK9dVPlmGg10wJcyv3i-24" source="ILK9dVPlmGg10wJcyv3i-39" target="ILK9dVPlmGg10wJcyv3i-46">
          <mxGeometry relative="1" as="geometry" />
        </mxCell>
        <mxCell id="ILK9dVPlmGg10wJcyv3i-48" value="dec" style="edgeLabel;html=1;align=center;verticalAlign=middle;resizable=0;points=[];" vertex="1" connectable="0" parent="ILK9dVPlmGg10wJcyv3i-47">
          <mxGeometry x="-0.3931" relative="1" as="geometry">
            <mxPoint as="offset" />
          </mxGeometry>
        </mxCell>
        <mxCell id="ILK9dVPlmGg10wJcyv3i-50" style="edgeStyle=orthogonalEdgeStyle;rounded=0;orthogonalLoop=1;jettySize=auto;html=1;exitX=1;exitY=0.5;exitDx=0;exitDy=0;" edge="1" parent="ILK9dVPlmGg10wJcyv3i-24" source="ILK9dVPlmGg10wJcyv3i-39" target="ILK9dVPlmGg10wJcyv3i-49">
          <mxGeometry relative="1" as="geometry" />
        </mxCell>
        <mxCell id="ILK9dVPlmGg10wJcyv3i-51" value="change state" style="edgeLabel;html=1;align=center;verticalAlign=middle;resizable=0;points=[];" vertex="1" connectable="0" parent="ILK9dVPlmGg10wJcyv3i-50">
          <mxGeometry x="-0.619" y="1" relative="1" as="geometry">
            <mxPoint x="20" y="21" as="offset" />
          </mxGeometry>
        </mxCell>
        <mxCell id="ILK9dVPlmGg10wJcyv3i-54" style="edgeStyle=orthogonalEdgeStyle;rounded=0;orthogonalLoop=1;jettySize=auto;html=1;exitX=0.5;exitY=1;exitDx=0;exitDy=0;" edge="1" parent="ILK9dVPlmGg10wJcyv3i-24" source="ILK9dVPlmGg10wJcyv3i-39" target="ILK9dVPlmGg10wJcyv3i-53">
          <mxGeometry relative="1" as="geometry" />
        </mxCell>
        <mxCell id="ILK9dVPlmGg10wJcyv3i-39" value="Worker dead" style="rounded=1;whiteSpace=wrap;html=1;" vertex="1" parent="ILK9dVPlmGg10wJcyv3i-24">
          <mxGeometry x="80" y="450" width="120" height="60" as="geometry" />
        </mxCell>
        <mxCell id="ILK9dVPlmGg10wJcyv3i-46" value="Slots" style="rounded=1;whiteSpace=wrap;html=1;" vertex="1" parent="ILK9dVPlmGg10wJcyv3i-24">
          <mxGeometry x="270" y="460" width="120" height="30" as="geometry" />
        </mxCell>
        <mxCell id="ILK9dVPlmGg10wJcyv3i-49" value="Tasks" style="rounded=1;whiteSpace=wrap;html=1;" vertex="1" parent="ILK9dVPlmGg10wJcyv3i-24">
          <mxGeometry x="270" y="500" width="120" height="30" as="geometry" />
        </mxCell>
        <mxCell id="ILK9dVPlmGg10wJcyv3i-53" value="Try Start Task" style="shape=process;whiteSpace=wrap;html=1;backgroundOutline=1;dashed=1;" vertex="1" parent="ILK9dVPlmGg10wJcyv3i-24">
          <mxGeometry x="80" y="570" width="120" height="60" as="geometry" />
        </mxCell>
        <mxCell id="ILK9dVPlmGg10wJcyv3i-55" value="&lt;h1&gt;Leader Process 1: Probe Cluster &amp;amp; Fill Slots&lt;/h1&gt;&lt;div&gt;Check all workers state, update local cache/state on status of available slots/tasks.&lt;/div&gt;&lt;div&gt;Starts new tasks if N_slots &amp;gt; N_(open/not running/not completed tasks)&lt;/div&gt;" style="text;html=1;strokeColor=none;fillColor=none;spacing=5;spacingTop=-20;whiteSpace=wrap;overflow=hidden;rounded=0;" vertex="1" parent="ILK9dVPlmGg10wJcyv3i-24">
          <mxGeometry x="45" y="90" width="575" height="120" as="geometry" />
        </mxCell>
      </root>
    </mxGraphModel>
  </diagram>
  <diagram id="vf5Z7Te9e8RP3wPw4nvu" name="Start Job (routes)">
    <mxGraphModel dx="851" dy="797" grid="1" gridSize="10" guides="1" tooltips="1" connect="1" arrows="1" fold="1" page="1" pageScale="1" pageWidth="850" pageHeight="1100" math="0" shadow="0">
      <root>
        <mxCell id="0" />
        <mxCell id="1" style="" parent="0" />
        <mxCell id="Db0BMM7muDN0kT1ROCWp-3" style="edgeStyle=orthogonalEdgeStyle;rounded=0;orthogonalLoop=1;jettySize=auto;html=1;exitX=0.5;exitY=0.5;exitDx=0;exitDy=0;exitPerimeter=0;" edge="1" parent="1" source="Db0BMM7muDN0kT1ROCWp-1" target="Db0BMM7muDN0kT1ROCWp-2">
          <mxGeometry relative="1" as="geometry" />
        </mxCell>
        <mxCell id="Db0BMM7muDN0kT1ROCWp-1" value="Actor" style="shape=umlActor;verticalLabelPosition=bottom;verticalAlign=top;html=1;outlineConnect=0;" vertex="1" parent="1">
          <mxGeometry x="100" y="320" width="30" height="60" as="geometry" />
        </mxCell>
        <mxCell id="ap4qXGQvsTwgsdm7nJRE-9" style="edgeStyle=orthogonalEdgeStyle;rounded=0;orthogonalLoop=1;jettySize=auto;html=1;exitX=0.5;exitY=1;exitDx=0;exitDy=0;entryX=0.5;entryY=0;entryDx=0;entryDy=0;fillColor=#d5e8d4;strokeColor=#82b366;" edge="1" parent="1" source="Db0BMM7muDN0kT1ROCWp-2" target="ap4qXGQvsTwgsdm7nJRE-1">
          <mxGeometry relative="1" as="geometry" />
        </mxCell>
        <mxCell id="ap4qXGQvsTwgsdm7nJRE-10" style="edgeStyle=orthogonalEdgeStyle;rounded=0;orthogonalLoop=1;jettySize=auto;html=1;exitX=0.5;exitY=1;exitDx=0;exitDy=0;entryX=0.5;entryY=0;entryDx=0;entryDy=0;fillColor=#d5e8d4;strokeColor=#82b366;" edge="1" parent="1" source="Db0BMM7muDN0kT1ROCWp-2" target="ap4qXGQvsTwgsdm7nJRE-5">
          <mxGeometry relative="1" as="geometry" />
        </mxCell>
        <mxCell id="ap4qXGQvsTwgsdm7nJRE-11" value="&lt;font face=&quot;Courier New&quot;&gt;POST AssignedTaskConfig&lt;/font&gt;" style="edgeLabel;html=1;align=center;verticalAlign=middle;resizable=0;points=[];fontColor=#82b366;" vertex="1" connectable="0" parent="ap4qXGQvsTwgsdm7nJRE-10">
          <mxGeometry x="-0.8897" y="2" relative="1" as="geometry">
            <mxPoint x="83" y="4" as="offset" />
          </mxGeometry>
        </mxCell>
        <mxCell id="ap4qXGQvsTwgsdm7nJRE-13" style="edgeStyle=orthogonalEdgeStyle;rounded=0;orthogonalLoop=1;jettySize=auto;html=1;exitX=1;exitY=0.25;exitDx=0;exitDy=0;entryX=0;entryY=0;entryDx=0;entryDy=27.5;entryPerimeter=0;fillColor=#fff2cc;strokeColor=#d6b656;" edge="1" parent="1" source="Db0BMM7muDN0kT1ROCWp-2" target="ap4qXGQvsTwgsdm7nJRE-12">
          <mxGeometry relative="1" as="geometry" />
        </mxCell>
        <mxCell id="ap4qXGQvsTwgsdm7nJRE-15" value="&lt;font color=&quot;#d6b655&quot; face=&quot;Courier New&quot;&gt;List[Fiile]&lt;/font&gt;" style="edgeLabel;html=1;align=center;verticalAlign=middle;resizable=0;points=[];" vertex="1" connectable="0" parent="ap4qXGQvsTwgsdm7nJRE-13">
          <mxGeometry x="-0.7952" y="2" relative="1" as="geometry">
            <mxPoint x="18" as="offset" />
          </mxGeometry>
        </mxCell>
        <mxCell id="ESVPZDimT0iceCTn0bf2-1" style="edgeStyle=orthogonalEdgeStyle;rounded=0;orthogonalLoop=1;jettySize=auto;html=1;exitX=0.25;exitY=1;exitDx=0;exitDy=0;entryX=0.25;entryY=0;entryDx=0;entryDy=0;dashed=1;fillColor=#e1d5e7;strokeColor=#9673a6;" edge="1" parent="1" source="Db0BMM7muDN0kT1ROCWp-2" target="ap4qXGQvsTwgsdm7nJRE-1">
          <mxGeometry relative="1" as="geometry" />
        </mxCell>
        <mxCell id="ESVPZDimT0iceCTn0bf2-2" style="edgeStyle=orthogonalEdgeStyle;rounded=0;orthogonalLoop=1;jettySize=auto;html=1;exitX=0.25;exitY=1;exitDx=0;exitDy=0;entryX=0.25;entryY=0;entryDx=0;entryDy=0;fillColor=#e1d5e7;strokeColor=#9673a6;dashed=1;startArrow=classic;startFill=1;" edge="1" parent="1" source="Db0BMM7muDN0kT1ROCWp-2" target="ap4qXGQvsTwgsdm7nJRE-5">
          <mxGeometry relative="1" as="geometry" />
        </mxCell>
        <mxCell id="ESVPZDimT0iceCTn0bf2-4" style="edgeStyle=orthogonalEdgeStyle;rounded=0;orthogonalLoop=1;jettySize=auto;html=1;exitX=0;exitY=0.75;exitDx=0;exitDy=0;" edge="1" parent="1" source="Db0BMM7muDN0kT1ROCWp-2">
          <mxGeometry relative="1" as="geometry">
            <mxPoint x="140.0000000000001" y="380" as="targetPoint" />
          </mxGeometry>
        </mxCell>
        <mxCell id="Db0BMM7muDN0kT1ROCWp-2" value="Leader" style="rounded=0;whiteSpace=wrap;html=1;" vertex="1" parent="1">
          <mxGeometry x="270" y="320" width="120" height="60" as="geometry" />
        </mxCell>
        <mxCell id="Db0BMM7muDN0kT1ROCWp-4" value="&lt;font face=&quot;Courier New&quot;&gt;POST UserJobConfig&lt;/font&gt;" style="text;html=1;align=center;verticalAlign=middle;resizable=0;points=[];autosize=1;strokeColor=none;fillColor=none;" vertex="1" parent="1">
          <mxGeometry x="125" y="330" width="150" height="30" as="geometry" />
        </mxCell>
        <mxCell id="ap4qXGQvsTwgsdm7nJRE-1" value="Worker" style="rounded=0;whiteSpace=wrap;html=1;" vertex="1" parent="1">
          <mxGeometry x="285" y="460" width="120" height="60" as="geometry" />
        </mxCell>
        <mxCell id="ap4qXGQvsTwgsdm7nJRE-2" value="" style="group" vertex="1" connectable="0" parent="1">
          <mxGeometry x="305" y="530" width="120" height="30" as="geometry" />
        </mxCell>
        <mxCell id="ap4qXGQvsTwgsdm7nJRE-3" value="" style="rounded=0;whiteSpace=wrap;html=1;" vertex="1" parent="ap4qXGQvsTwgsdm7nJRE-2">
          <mxGeometry width="110" height="20" as="geometry" />
        </mxCell>
        <mxCell id="ap4qXGQvsTwgsdm7nJRE-4" value="Task" style="rounded=0;whiteSpace=wrap;html=1;" vertex="1" parent="ap4qXGQvsTwgsdm7nJRE-2">
          <mxGeometry x="10" y="10" width="110" height="20" as="geometry" />
        </mxCell>
        <mxCell id="ap4qXGQvsTwgsdm7nJRE-5" value="Worker" style="rounded=0;whiteSpace=wrap;html=1;" vertex="1" parent="1">
          <mxGeometry x="480" y="460" width="120" height="60" as="geometry" />
        </mxCell>
        <mxCell id="ap4qXGQvsTwgsdm7nJRE-6" value="" style="group" vertex="1" connectable="0" parent="1">
          <mxGeometry x="500" y="530" width="120" height="30" as="geometry" />
        </mxCell>
        <mxCell id="ap4qXGQvsTwgsdm7nJRE-7" value="" style="rounded=0;whiteSpace=wrap;html=1;" vertex="1" parent="ap4qXGQvsTwgsdm7nJRE-6">
          <mxGeometry width="110" height="20" as="geometry" />
        </mxCell>
        <mxCell id="ap4qXGQvsTwgsdm7nJRE-8" value="Task" style="rounded=0;whiteSpace=wrap;html=1;" vertex="1" parent="ap4qXGQvsTwgsdm7nJRE-6">
          <mxGeometry x="10" y="10" width="110" height="20" as="geometry" />
        </mxCell>
        <mxCell id="ap4qXGQvsTwgsdm7nJRE-14" style="edgeStyle=orthogonalEdgeStyle;rounded=0;orthogonalLoop=1;jettySize=auto;html=1;exitX=0;exitY=0;exitDx=0;exitDy=52.5;exitPerimeter=0;entryX=1;entryY=0.5;entryDx=0;entryDy=0;fillColor=#fff2cc;strokeColor=#d6b656;" edge="1" parent="1" source="ap4qXGQvsTwgsdm7nJRE-12" target="Db0BMM7muDN0kT1ROCWp-2">
          <mxGeometry relative="1" as="geometry" />
        </mxCell>
        <mxCell id="ap4qXGQvsTwgsdm7nJRE-17" style="edgeStyle=orthogonalEdgeStyle;rounded=0;orthogonalLoop=1;jettySize=auto;html=1;exitX=0.5;exitY=1;exitDx=0;exitDy=0;exitPerimeter=0;entryX=1;entryY=0.5;entryDx=0;entryDy=0;dashed=1;" edge="1" parent="1" source="ap4qXGQvsTwgsdm7nJRE-12" target="ap4qXGQvsTwgsdm7nJRE-8">
          <mxGeometry relative="1" as="geometry" />
        </mxCell>
        <mxCell id="ap4qXGQvsTwgsdm7nJRE-19" value="File Content" style="edgeLabel;html=1;align=center;verticalAlign=middle;resizable=0;points=[];" vertex="1" connectable="0" parent="ap4qXGQvsTwgsdm7nJRE-17">
          <mxGeometry x="0.6963" relative="1" as="geometry">
            <mxPoint as="offset" />
          </mxGeometry>
        </mxCell>
        <mxCell id="ap4qXGQvsTwgsdm7nJRE-18" style="edgeStyle=orthogonalEdgeStyle;rounded=0;orthogonalLoop=1;jettySize=auto;html=1;exitX=0.5;exitY=1;exitDx=0;exitDy=0;exitPerimeter=0;entryX=0.5;entryY=1;entryDx=0;entryDy=0;dashed=1;" edge="1" parent="1" source="ap4qXGQvsTwgsdm7nJRE-12" target="ap4qXGQvsTwgsdm7nJRE-4">
          <mxGeometry relative="1" as="geometry" />
        </mxCell>
        <mxCell id="ap4qXGQvsTwgsdm7nJRE-20" value="File Content" style="edgeLabel;html=1;align=center;verticalAlign=middle;resizable=0;points=[];" vertex="1" connectable="0" parent="ap4qXGQvsTwgsdm7nJRE-18">
          <mxGeometry x="0.807" relative="1" as="geometry">
            <mxPoint as="offset" />
          </mxGeometry>
        </mxCell>
        <mxCell id="ap4qXGQvsTwgsdm7nJRE-12" value="Source" style="shape=cylinder3;whiteSpace=wrap;html=1;boundedLbl=1;backgroundOutline=1;size=15;" vertex="1" parent="1">
          <mxGeometry x="700" y="310" width="60" height="80" as="geometry" />
        </mxCell>
        <mxCell id="ap4qXGQvsTwgsdm7nJRE-21" value="Output" style="shape=cylinder3;whiteSpace=wrap;html=1;boundedLbl=1;backgroundOutline=1;size=15;" vertex="1" parent="1">
          <mxGeometry x="425" y="690" width="60" height="80" as="geometry" />
        </mxCell>
        <mxCell id="ap4qXGQvsTwgsdm7nJRE-22" style="edgeStyle=orthogonalEdgeStyle;rounded=0;orthogonalLoop=1;jettySize=auto;html=1;exitX=0.25;exitY=1;exitDx=0;exitDy=0;dashed=1;" edge="1" parent="1" source="ap4qXGQvsTwgsdm7nJRE-4" target="ap4qXGQvsTwgsdm7nJRE-21">
          <mxGeometry relative="1" as="geometry" />
        </mxCell>
        <mxCell id="ap4qXGQvsTwgsdm7nJRE-23" style="edgeStyle=orthogonalEdgeStyle;rounded=0;orthogonalLoop=1;jettySize=auto;html=1;exitX=0.5;exitY=1;exitDx=0;exitDy=0;dashed=1;entryX=0.5;entryY=0;entryDx=0;entryDy=0;entryPerimeter=0;" edge="1" parent="1" source="ap4qXGQvsTwgsdm7nJRE-8" target="ap4qXGQvsTwgsdm7nJRE-21">
          <mxGeometry relative="1" as="geometry">
            <mxPoint x="330" y="680" as="targetPoint" />
          </mxGeometry>
        </mxCell>
        <mxCell id="ap4qXGQvsTwgsdm7nJRE-24" value="Data output" style="edgeLabel;html=1;align=center;verticalAlign=middle;resizable=0;points=[];" vertex="1" connectable="0" parent="ap4qXGQvsTwgsdm7nJRE-23">
          <mxGeometry x="0.6833" y="1" relative="1" as="geometry">
            <mxPoint as="offset" />
          </mxGeometry>
        </mxCell>
        <mxCell id="ESVPZDimT0iceCTn0bf2-3" value="&lt;font color=&quot;#9673a6&quot; face=&quot;Courier New&quot;&gt;GET WorkerState&lt;/font&gt;" style="edgeLabel;html=1;align=center;verticalAlign=middle;resizable=0;points=[];fontColor=default;" vertex="1" connectable="0" parent="1">
          <mxGeometry x="230.00366167248558" y="430.0003404293724" as="geometry">
            <mxPoint x="31" y="1" as="offset" />
          </mxGeometry>
        </mxCell>
        <mxCell id="ESVPZDimT0iceCTn0bf2-5" value="&lt;font face=&quot;Courier New&quot;&gt;JobDetails&lt;/font&gt;" style="text;html=1;align=center;verticalAlign=middle;resizable=0;points=[];autosize=1;strokeColor=none;fillColor=none;" vertex="1" parent="1">
          <mxGeometry x="160" y="370" width="100" height="30" as="geometry" />
        </mxCell>
        <mxCell id="ap4qXGQvsTwgsdm7nJRE-25" value="Numbers" style="locked=1;" parent="0" visible="0" />
        <mxCell id="qsY8U3w0yyEC9fV5XO1o-1" value="&lt;font style=&quot;font-size: 18px;&quot;&gt;1&lt;/font&gt;" style="ellipse;whiteSpace=wrap;html=1;aspect=fixed;fillColor=#e1d5e7;strokeColor=#9673a6;fontStyle=1" vertex="1" parent="ap4qXGQvsTwgsdm7nJRE-25">
          <mxGeometry x="140" y="300" width="30" height="30" as="geometry" />
        </mxCell>
        <mxCell id="qsY8U3w0yyEC9fV5XO1o-2" value="&lt;font style=&quot;font-size: 18px;&quot;&gt;2&lt;/font&gt;" style="ellipse;whiteSpace=wrap;html=1;aspect=fixed;fillColor=#fff2cc;strokeColor=#d6b656;fontStyle=1" vertex="1" parent="ap4qXGQvsTwgsdm7nJRE-25">
          <mxGeometry x="395" y="290" width="30" height="30" as="geometry" />
        </mxCell>
        <mxCell id="qsY8U3w0yyEC9fV5XO1o-3" value="&lt;font style=&quot;font-size: 18px;&quot;&gt;3&lt;/font&gt;" style="ellipse;whiteSpace=wrap;html=1;aspect=fixed;fillColor=#e1d5e7;strokeColor=#9673a6;fontStyle=1" vertex="1" parent="ap4qXGQvsTwgsdm7nJRE-25">
          <mxGeometry x="250" y="380" width="30" height="30" as="geometry" />
        </mxCell>
        <mxCell id="qsY8U3w0yyEC9fV5XO1o-4" value="&lt;font style=&quot;font-size: 18px;&quot;&gt;4&lt;/font&gt;" style="ellipse;whiteSpace=wrap;html=1;aspect=fixed;fillColor=#fff2cc;strokeColor=#d6b656;fontStyle=1" vertex="1" parent="ap4qXGQvsTwgsdm7nJRE-25">
          <mxGeometry x="630" y="510" width="30" height="30" as="geometry" />
        </mxCell>
        <mxCell id="qsY8U3w0yyEC9fV5XO1o-5" value="&lt;font style=&quot;font-size: 18px;&quot;&gt;5&lt;/font&gt;" style="ellipse;whiteSpace=wrap;html=1;aspect=fixed;fillColor=#fff2cc;strokeColor=#d6b656;fontStyle=1" vertex="1" parent="ap4qXGQvsTwgsdm7nJRE-25">
          <mxGeometry x="395" y="630" width="30" height="30" as="geometry" />
        </mxCell>
      </root>
    </mxGraphModel>
  </diagram>
  <diagram id="bIedsJ3fE37k9xCP9uh2" name="Start Job">
    <mxGraphModel dx="2084" dy="1156" grid="1" gridSize="10" guides="1" tooltips="1" connect="1" arrows="1" fold="1" page="1" pageScale="1" pageWidth="850" pageHeight="1100" math="0" shadow="0">
      <root>
        <mxCell id="0" />
        <mxCell id="5M29ZxuVkydaEtLrXNj4-8" value="Groups" style="locked=1;" parent="0" />
        <mxCell id="5M29ZxuVkydaEtLrXNj4-14" value="" style="group" vertex="1" connectable="0" parent="5M29ZxuVkydaEtLrXNj4-8">
          <mxGeometry x="40" y="430" width="180" height="150" as="geometry" />
        </mxCell>
        <mxCell id="5M29ZxuVkydaEtLrXNj4-12" value="" style="rounded=0;whiteSpace=wrap;html=1;" vertex="1" parent="5M29ZxuVkydaEtLrXNj4-14">
          <mxGeometry width="180" height="150" as="geometry" />
        </mxCell>
        <mxCell id="5M29ZxuVkydaEtLrXNj4-13" value="Distributed FS" style="text;html=1;strokeColor=none;fillColor=none;align=center;verticalAlign=middle;whiteSpace=wrap;rounded=0;fontStyle=1" vertex="1" parent="5M29ZxuVkydaEtLrXNj4-14">
          <mxGeometry width="90" height="34.61538461538461" as="geometry" />
        </mxCell>
        <mxCell id="1" style="" parent="0" />
        <mxCell id="5M29ZxuVkydaEtLrXNj4-15" style="edgeStyle=orthogonalEdgeStyle;rounded=0;orthogonalLoop=1;jettySize=auto;html=1;exitX=0.5;exitY=1;exitDx=0;exitDy=0;entryX=0.5;entryY=0;entryDx=0;entryDy=0;" edge="1" parent="1" source="5M29ZxuVkydaEtLrXNj4-1" target="5M29ZxuVkydaEtLrXNj4-12">
          <mxGeometry relative="1" as="geometry" />
        </mxCell>
        <mxCell id="5M29ZxuVkydaEtLrXNj4-24" style="edgeStyle=orthogonalEdgeStyle;rounded=0;orthogonalLoop=1;jettySize=auto;html=1;exitX=1;exitY=0.5;exitDx=0;exitDy=0;dashed=1;jumpStyle=arc;dashPattern=12 12;fillColor=#e1d5e7;strokeColor=#9673a6;" edge="1" parent="1" source="5M29ZxuVkydaEtLrXNj4-1" target="5M29ZxuVkydaEtLrXNj4-18">
          <mxGeometry relative="1" as="geometry" />
        </mxCell>
        <mxCell id="5M29ZxuVkydaEtLrXNj4-25" style="edgeStyle=orthogonalEdgeStyle;rounded=0;orthogonalLoop=1;jettySize=auto;html=1;exitX=1;exitY=0.5;exitDx=0;exitDy=0;entryX=0;entryY=0.5;entryDx=0;entryDy=0;dashed=1;jumpStyle=arc;dashPattern=12 12;fillColor=#e1d5e7;strokeColor=#9673a6;" edge="1" parent="1" source="5M29ZxuVkydaEtLrXNj4-1" target="5M29ZxuVkydaEtLrXNj4-19">
          <mxGeometry relative="1" as="geometry" />
        </mxCell>
        <mxCell id="5M29ZxuVkydaEtLrXNj4-27" style="edgeStyle=orthogonalEdgeStyle;rounded=0;orthogonalLoop=1;jettySize=auto;html=1;exitX=0.5;exitY=1;exitDx=0;exitDy=0;entryX=1;entryY=0.5;entryDx=0;entryDy=0;fillColor=#f8cecc;strokeColor=#b85450;dashed=1;jumpStyle=arc;" edge="1" parent="1" source="5M29ZxuVkydaEtLrXNj4-1" target="5M29ZxuVkydaEtLrXNj4-9">
          <mxGeometry relative="1" as="geometry" />
        </mxCell>
        <mxCell id="5M29ZxuVkydaEtLrXNj4-29" style="edgeStyle=orthogonalEdgeStyle;rounded=0;orthogonalLoop=1;jettySize=auto;html=1;exitX=0.5;exitY=1;exitDx=0;exitDy=0;entryX=1;entryY=0.5;entryDx=0;entryDy=0;fillColor=#f8cecc;strokeColor=#b85450;dashed=1;jumpStyle=arc;" edge="1" parent="1" source="5M29ZxuVkydaEtLrXNj4-1" target="5M29ZxuVkydaEtLrXNj4-6">
          <mxGeometry relative="1" as="geometry" />
        </mxCell>
        <mxCell id="5M29ZxuVkydaEtLrXNj4-31" style="edgeStyle=orthogonalEdgeStyle;rounded=0;orthogonalLoop=1;jettySize=auto;html=1;exitX=0.5;exitY=1;exitDx=0;exitDy=0;entryX=1;entryY=0.5;entryDx=0;entryDy=0;dashed=1;fillColor=#f8cecc;strokeColor=#b85450;jumpStyle=arc;" edge="1" parent="1" source="5M29ZxuVkydaEtLrXNj4-1" target="5M29ZxuVkydaEtLrXNj4-11">
          <mxGeometry relative="1" as="geometry" />
        </mxCell>
        <mxCell id="5M29ZxuVkydaEtLrXNj4-36" style="edgeStyle=orthogonalEdgeStyle;rounded=0;orthogonalLoop=1;jettySize=auto;html=1;exitX=0.5;exitY=1;exitDx=0;exitDy=0;entryX=1;entryY=0.5;entryDx=0;entryDy=0;dashed=1;fillColor=#e1d5e7;strokeColor=#9673a6;jumpStyle=arc;" edge="1" parent="1" source="5M29ZxuVkydaEtLrXNj4-1" target="5M29ZxuVkydaEtLrXNj4-23">
          <mxGeometry relative="1" as="geometry" />
        </mxCell>
        <mxCell id="5M29ZxuVkydaEtLrXNj4-58" style="edgeStyle=orthogonalEdgeStyle;rounded=0;orthogonalLoop=1;jettySize=auto;html=1;exitX=0.5;exitY=0;exitDx=0;exitDy=0;entryX=0.5;entryY=0;entryDx=0;entryDy=0;fillColor=#e1d5e7;strokeColor=#9673a6;dashed=1;dashPattern=1 2;" edge="1" parent="1" source="5M29ZxuVkydaEtLrXNj4-1" target="5M29ZxuVkydaEtLrXNj4-18">
          <mxGeometry relative="1" as="geometry" />
        </mxCell>
        <mxCell id="5M29ZxuVkydaEtLrXNj4-59" style="edgeStyle=orthogonalEdgeStyle;rounded=0;orthogonalLoop=1;jettySize=auto;html=1;exitX=0.5;exitY=0;exitDx=0;exitDy=0;entryX=1;entryY=0.5;entryDx=0;entryDy=0;dashed=1;dashPattern=1 2;fillColor=#e1d5e7;strokeColor=#9673a6;" edge="1" parent="1" source="5M29ZxuVkydaEtLrXNj4-1" target="5M29ZxuVkydaEtLrXNj4-19">
          <mxGeometry relative="1" as="geometry" />
        </mxCell>
        <mxCell id="5M29ZxuVkydaEtLrXNj4-1" value="Leader" style="rounded=0;whiteSpace=wrap;html=1;" vertex="1" parent="1">
          <mxGeometry x="50" y="240" width="120" height="60" as="geometry" />
        </mxCell>
        <mxCell id="5M29ZxuVkydaEtLrXNj4-28" style="edgeStyle=orthogonalEdgeStyle;rounded=0;orthogonalLoop=1;jettySize=auto;html=1;exitX=1;exitY=0.5;exitDx=0;exitDy=0;entryX=0;entryY=0.5;entryDx=0;entryDy=0;fillColor=#f8cecc;strokeColor=#b85450;dashed=1;jumpStyle=arc;" edge="1" parent="1" source="5M29ZxuVkydaEtLrXNj4-9" target="5M29ZxuVkydaEtLrXNj4-20">
          <mxGeometry relative="1" as="geometry" />
        </mxCell>
        <mxCell id="5M29ZxuVkydaEtLrXNj4-9" value="File 1" style="rounded=1;whiteSpace=wrap;html=1;" vertex="1" parent="1">
          <mxGeometry x="60" y="460" width="120" height="20" as="geometry" />
        </mxCell>
        <mxCell id="5M29ZxuVkydaEtLrXNj4-32" style="edgeStyle=orthogonalEdgeStyle;rounded=0;orthogonalLoop=1;jettySize=auto;html=1;exitX=1;exitY=0.5;exitDx=0;exitDy=0;dashed=1;fillColor=#f8cecc;strokeColor=#b85450;jumpStyle=arc;" edge="1" parent="1" source="5M29ZxuVkydaEtLrXNj4-11" target="5M29ZxuVkydaEtLrXNj4-22">
          <mxGeometry relative="1" as="geometry" />
        </mxCell>
        <mxCell id="5M29ZxuVkydaEtLrXNj4-11" value="File 3" style="rounded=1;whiteSpace=wrap;html=1;" vertex="1" parent="1">
          <mxGeometry x="60" y="520" width="120" height="20" as="geometry" />
        </mxCell>
        <mxCell id="5M29ZxuVkydaEtLrXNj4-30" style="edgeStyle=orthogonalEdgeStyle;rounded=0;orthogonalLoop=1;jettySize=auto;html=1;exitX=1;exitY=0.5;exitDx=0;exitDy=0;dashed=1;fillColor=#f8cecc;strokeColor=#b85450;jumpStyle=arc;" edge="1" parent="1" source="5M29ZxuVkydaEtLrXNj4-6" target="5M29ZxuVkydaEtLrXNj4-21">
          <mxGeometry relative="1" as="geometry" />
        </mxCell>
        <mxCell id="5M29ZxuVkydaEtLrXNj4-6" value="File 2" style="rounded=1;whiteSpace=wrap;html=1;" vertex="1" parent="1">
          <mxGeometry x="60" y="490" width="120" height="20" as="geometry" />
        </mxCell>
        <mxCell id="5M29ZxuVkydaEtLrXNj4-18" value="Worker W0" style="rounded=0;whiteSpace=wrap;html=1;" vertex="1" parent="1">
          <mxGeometry x="425" y="240" width="120" height="60" as="geometry" />
        </mxCell>
        <mxCell id="5M29ZxuVkydaEtLrXNj4-19" value="Worker W1" style="rounded=0;whiteSpace=wrap;html=1;" vertex="1" parent="1">
          <mxGeometry x="425" y="390" width="120" height="60" as="geometry" />
        </mxCell>
        <mxCell id="5M29ZxuVkydaEtLrXNj4-20" value="Task Slot W0T0" style="rounded=1;whiteSpace=wrap;html=1;" vertex="1" parent="1">
          <mxGeometry x="440" y="310" width="120" height="30" as="geometry" />
        </mxCell>
        <mxCell id="5M29ZxuVkydaEtLrXNj4-21" value="Task Slot W1T0" style="rounded=1;whiteSpace=wrap;html=1;" vertex="1" parent="1">
          <mxGeometry x="450" y="460" width="120" height="30" as="geometry" />
        </mxCell>
        <mxCell id="5M29ZxuVkydaEtLrXNj4-22" value="Task Slot W1T1" style="rounded=1;whiteSpace=wrap;html=1;" vertex="1" parent="1">
          <mxGeometry x="450" y="500" width="120" height="30" as="geometry" />
        </mxCell>
        <mxCell id="5M29ZxuVkydaEtLrXNj4-35" style="edgeStyle=orthogonalEdgeStyle;rounded=0;orthogonalLoop=1;jettySize=auto;html=1;exitX=1;exitY=0.5;exitDx=0;exitDy=0;entryX=0.5;entryY=1;entryDx=0;entryDy=0;dashed=1;fillColor=#fff2cc;strokeColor=#d6b656;jumpStyle=arc;" edge="1" parent="1" source="5M29ZxuVkydaEtLrXNj4-23" target="5M29ZxuVkydaEtLrXNj4-22">
          <mxGeometry relative="1" as="geometry" />
        </mxCell>
        <mxCell id="5M29ZxuVkydaEtLrXNj4-23" value="File 4" style="rounded=1;whiteSpace=wrap;html=1;" vertex="1" parent="1">
          <mxGeometry x="60" y="550" width="120" height="20" as="geometry" />
        </mxCell>
        <mxCell id="zQhwZ9JirJqZ1UEbRT5m-1" value="&lt;font style=&quot;font-size: 18px;&quot;&gt;2&lt;/font&gt;" style="ellipse;whiteSpace=wrap;html=1;aspect=fixed;fillColor=#e1d5e7;strokeColor=#9673a6;fontStyle=1" vertex="1" parent="1">
          <mxGeometry x="190" y="240" width="30" height="30" as="geometry" />
        </mxCell>
        <mxCell id="zQhwZ9JirJqZ1UEbRT5m-3" value="" style="group" vertex="1" connectable="0" parent="1">
          <mxGeometry x="40" y="700" width="240" height="30" as="geometry" />
        </mxCell>
        <mxCell id="zQhwZ9JirJqZ1UEbRT5m-4" value="&lt;font style=&quot;font-size: 18px;&quot;&gt;2&lt;/font&gt;" style="ellipse;whiteSpace=wrap;html=1;aspect=fixed;fillColor=#e1d5e7;strokeColor=#9673a6;fontStyle=1" vertex="1" parent="zQhwZ9JirJqZ1UEbRT5m-3">
          <mxGeometry width="30" height="30" as="geometry" />
        </mxCell>
        <mxCell id="zQhwZ9JirJqZ1UEbRT5m-5" value="Leader checks if all workers are available" style="text;html=1;strokeColor=none;fillColor=none;align=left;verticalAlign=middle;whiteSpace=wrap;rounded=0;" vertex="1" parent="zQhwZ9JirJqZ1UEbRT5m-3">
          <mxGeometry x="40" width="200" height="30" as="geometry" />
        </mxCell>
        <mxCell id="5M29ZxuVkydaEtLrXNj4-16" value="Numbers" style="" parent="0" />
        <mxCell id="5M29ZxuVkydaEtLrXNj4-26" value="&lt;font style=&quot;font-size: 18px;&quot;&gt;1&lt;/font&gt;" style="ellipse;whiteSpace=wrap;html=1;aspect=fixed;fillColor=#e1d5e7;strokeColor=#9673a6;fontStyle=1" vertex="1" parent="5M29ZxuVkydaEtLrXNj4-16">
          <mxGeometry x="20" y="290" width="30" height="30" as="geometry" />
        </mxCell>
        <mxCell id="5M29ZxuVkydaEtLrXNj4-33" value="&lt;font style=&quot;font-size: 18px;&quot;&gt;5&lt;/font&gt;" style="ellipse;whiteSpace=wrap;html=1;aspect=fixed;fillColor=#f8cecc;strokeColor=#b85450;fontStyle=1" vertex="1" parent="5M29ZxuVkydaEtLrXNj4-16">
          <mxGeometry x="210" y="430" width="30" height="30" as="geometry" />
        </mxCell>
        <mxCell id="5M29ZxuVkydaEtLrXNj4-34" value="&lt;font style=&quot;font-size: 18px;&quot;&gt;6&lt;/font&gt;" style="ellipse;whiteSpace=wrap;html=1;aspect=fixed;fillColor=#fff2cc;strokeColor=#d6b656;fontStyle=1" vertex="1" parent="5M29ZxuVkydaEtLrXNj4-16">
          <mxGeometry x="190" y="560" width="30" height="30" as="geometry" />
        </mxCell>
        <mxCell id="5M29ZxuVkydaEtLrXNj4-44" style="edgeStyle=orthogonalEdgeStyle;rounded=0;orthogonalLoop=1;jettySize=auto;html=1;" edge="1" parent="5M29ZxuVkydaEtLrXNj4-16" source="5M29ZxuVkydaEtLrXNj4-43" target="5M29ZxuVkydaEtLrXNj4-1">
          <mxGeometry relative="1" as="geometry" />
        </mxCell>
        <mxCell id="5M29ZxuVkydaEtLrXNj4-45" value="Program" style="edgeLabel;html=1;align=center;verticalAlign=middle;resizable=0;points=[];" vertex="1" connectable="0" parent="5M29ZxuVkydaEtLrXNj4-44">
          <mxGeometry x="-0.2222" y="2" relative="1" as="geometry">
            <mxPoint as="offset" />
          </mxGeometry>
        </mxCell>
        <mxCell id="5M29ZxuVkydaEtLrXNj4-43" value="Actor" style="shape=umlActor;verticalLabelPosition=bottom;verticalAlign=top;html=1;outlineConnect=0;" vertex="1" parent="5M29ZxuVkydaEtLrXNj4-16">
          <mxGeometry x="-70" y="240" width="30" height="60" as="geometry" />
        </mxCell>
        <mxCell id="5M29ZxuVkydaEtLrXNj4-47" value="" style="group" vertex="1" connectable="0" parent="5M29ZxuVkydaEtLrXNj4-16">
          <mxGeometry x="40" y="650" width="240" height="30" as="geometry" />
        </mxCell>
        <mxCell id="5M29ZxuVkydaEtLrXNj4-38" value="&lt;font style=&quot;font-size: 18px;&quot;&gt;1&lt;/font&gt;" style="ellipse;whiteSpace=wrap;html=1;aspect=fixed;fillColor=#e1d5e7;strokeColor=#9673a6;fontStyle=1" vertex="1" parent="5M29ZxuVkydaEtLrXNj4-47">
          <mxGeometry width="30" height="30" as="geometry" />
        </mxCell>
        <mxCell id="5M29ZxuVkydaEtLrXNj4-46" value="Leader accepts a user job and validates that it&#39;s valid&amp;nbsp;" style="text;html=1;strokeColor=none;fillColor=none;align=left;verticalAlign=middle;whiteSpace=wrap;rounded=0;" vertex="1" parent="5M29ZxuVkydaEtLrXNj4-47">
          <mxGeometry x="40" width="200" height="30" as="geometry" />
        </mxCell>
        <mxCell id="5M29ZxuVkydaEtLrXNj4-50" value="" style="group" vertex="1" connectable="0" parent="5M29ZxuVkydaEtLrXNj4-16">
          <mxGeometry x="40" y="750" width="240" height="30" as="geometry" />
        </mxCell>
        <mxCell id="5M29ZxuVkydaEtLrXNj4-37" value="&lt;font style=&quot;font-size: 18px;&quot;&gt;3&lt;/font&gt;" style="ellipse;whiteSpace=wrap;html=1;aspect=fixed;fillColor=#e1d5e7;strokeColor=#9673a6;fontStyle=1" vertex="1" parent="5M29ZxuVkydaEtLrXNj4-50">
          <mxGeometry width="30" height="30" as="geometry" />
        </mxCell>
        <mxCell id="5M29ZxuVkydaEtLrXNj4-42" value="Leader lists file and builds am execution plan (assigns files to workers)" style="text;html=1;strokeColor=none;fillColor=none;align=left;verticalAlign=middle;whiteSpace=wrap;rounded=0;" vertex="1" parent="5M29ZxuVkydaEtLrXNj4-50">
          <mxGeometry x="40" width="200" height="30" as="geometry" />
        </mxCell>
        <mxCell id="5M29ZxuVkydaEtLrXNj4-57" value="&lt;font style=&quot;font-size: 18px;&quot;&gt;3&lt;/font&gt;" style="ellipse;whiteSpace=wrap;html=1;aspect=fixed;fillColor=#e1d5e7;strokeColor=#9673a6;fontStyle=1" vertex="1" parent="5M29ZxuVkydaEtLrXNj4-16">
          <mxGeometry x="120" y="300" width="30" height="30" as="geometry" />
        </mxCell>
        <mxCell id="zQhwZ9JirJqZ1UEbRT5m-6" value="&lt;font style=&quot;font-size: 18px;&quot;&gt;4&lt;/font&gt;" style="ellipse;whiteSpace=wrap;html=1;aspect=fixed;fillColor=#f5f5f5;strokeColor=#666666;fontStyle=1;fontColor=#333333;" vertex="1" parent="5M29ZxuVkydaEtLrXNj4-16">
          <mxGeometry x="70" y="200" width="30" height="30" as="geometry" />
        </mxCell>
        <mxCell id="5M29ZxuVkydaEtLrXNj4-54" value="" style="group" vertex="1" connectable="0" parent="5M29ZxuVkydaEtLrXNj4-16">
          <mxGeometry x="40" y="800" width="240" height="30" as="geometry" />
        </mxCell>
        <mxCell id="5M29ZxuVkydaEtLrXNj4-55" value="&lt;font style=&quot;font-size: 18px;&quot;&gt;4&lt;/font&gt;" style="ellipse;whiteSpace=wrap;html=1;aspect=fixed;fillColor=#f5f5f5;strokeColor=#666666;fontStyle=1;fontColor=#333333;" vertex="1" parent="5M29ZxuVkydaEtLrXNj4-54">
          <mxGeometry width="30" height="30" as="geometry" />
        </mxCell>
        <mxCell id="5M29ZxuVkydaEtLrXNj4-56" value="Leader does keepalive checks and communicates status w/ workers, rebalances if necessary" style="text;html=1;strokeColor=none;fillColor=none;align=left;verticalAlign=middle;whiteSpace=wrap;rounded=0;" vertex="1" parent="5M29ZxuVkydaEtLrXNj4-54">
          <mxGeometry x="40" width="200" height="30" as="geometry" />
        </mxCell>
        <mxCell id="zQhwZ9JirJqZ1UEbRT5m-9" value="" style="group" vertex="1" connectable="0" parent="5M29ZxuVkydaEtLrXNj4-16">
          <mxGeometry x="50" y="860" width="240" height="30" as="geometry" />
        </mxCell>
        <mxCell id="zQhwZ9JirJqZ1UEbRT5m-10" value="" style="group" vertex="1" connectable="0" parent="zQhwZ9JirJqZ1UEbRT5m-9">
          <mxGeometry x="-10" y="-10" width="240" height="30" as="geometry" />
        </mxCell>
        <mxCell id="5M29ZxuVkydaEtLrXNj4-39" value="&lt;font style=&quot;font-size: 18px;&quot;&gt;5&lt;/font&gt;" style="ellipse;whiteSpace=wrap;html=1;aspect=fixed;fillColor=#f8cecc;strokeColor=#b85450;fontStyle=1" vertex="1" parent="zQhwZ9JirJqZ1UEbRT5m-10">
          <mxGeometry width="30" height="30" as="geometry" />
        </mxCell>
        <mxCell id="5M29ZxuVkydaEtLrXNj4-49" value="Workers read individual files, work on them" style="text;html=1;strokeColor=none;fillColor=none;align=left;verticalAlign=middle;whiteSpace=wrap;rounded=0;" vertex="1" parent="zQhwZ9JirJqZ1UEbRT5m-10">
          <mxGeometry x="40" width="200" height="30" as="geometry" />
        </mxCell>
        <mxCell id="zQhwZ9JirJqZ1UEbRT5m-11" value="" style="group" vertex="1" connectable="0" parent="5M29ZxuVkydaEtLrXNj4-16">
          <mxGeometry x="40" y="900" width="240" height="30" as="geometry" />
        </mxCell>
        <mxCell id="5M29ZxuVkydaEtLrXNj4-40" value="&lt;font style=&quot;font-size: 18px;&quot;&gt;6&lt;/font&gt;" style="ellipse;whiteSpace=wrap;html=1;aspect=fixed;fillColor=#fff2cc;strokeColor=#d6b656;fontStyle=1" vertex="1" parent="zQhwZ9JirJqZ1UEbRT5m-11">
          <mxGeometry width="30" height="30" as="geometry" />
        </mxCell>
        <mxCell id="5M29ZxuVkydaEtLrXNj4-51" value="Once a worker frees up, the leader assigns another file to other workers" style="text;html=1;strokeColor=none;fillColor=none;align=left;verticalAlign=middle;whiteSpace=wrap;rounded=0;" vertex="1" parent="zQhwZ9JirJqZ1UEbRT5m-11">
          <mxGeometry x="40" width="200" height="30" as="geometry" />
        </mxCell>
        <mxCell id="zQhwZ9JirJqZ1UEbRT5m-12" value="&lt;font style=&quot;font-size: 18px;&quot;&gt;7&lt;/font&gt;" style="ellipse;whiteSpace=wrap;html=1;aspect=fixed;fillColor=#e1d5e7;strokeColor=#9673a6;fontStyle=1" vertex="1" parent="5M29ZxuVkydaEtLrXNj4-16">
          <mxGeometry x="40" y="950" width="30" height="30" as="geometry" />
        </mxCell>
        <mxCell id="zQhwZ9JirJqZ1UEbRT5m-13" value="Leader stores job status as done or in progress through periodic checks" style="text;html=1;strokeColor=none;fillColor=none;align=left;verticalAlign=middle;whiteSpace=wrap;rounded=0;" vertex="1" parent="5M29ZxuVkydaEtLrXNj4-16">
          <mxGeometry x="80" y="950" width="200" height="30" as="geometry" />
        </mxCell>
        <mxCell id="zQhwZ9JirJqZ1UEbRT5m-14" value="&lt;font style=&quot;font-size: 18px;&quot;&gt;7&lt;/font&gt;" style="ellipse;whiteSpace=wrap;html=1;aspect=fixed;fillColor=#e1d5e7;strokeColor=#9673a6;fontStyle=1" vertex="1" parent="5M29ZxuVkydaEtLrXNj4-16">
          <mxGeometry x="140" y="180" width="30" height="30" as="geometry" />
        </mxCell>
        <mxCell id="Kc1DCktLpZiaPYpmETjj-1" value="&lt;font style=&quot;font-size: 18px;&quot;&gt;8&lt;/font&gt;" style="ellipse;whiteSpace=wrap;html=1;aspect=fixed;fillColor=#e1d5e7;strokeColor=#9673a6;fontStyle=1" vertex="1" parent="5M29ZxuVkydaEtLrXNj4-16">
          <mxGeometry x="40" y="1000" width="30" height="30" as="geometry" />
        </mxCell>
        <mxCell id="Kc1DCktLpZiaPYpmETjj-2" value="Upon request, the leader aggregates output and returns data" style="text;html=1;strokeColor=none;fillColor=none;align=left;verticalAlign=middle;whiteSpace=wrap;rounded=0;" vertex="1" parent="5M29ZxuVkydaEtLrXNj4-16">
          <mxGeometry x="80" y="1000" width="200" height="30" as="geometry" />
        </mxCell>
        <mxCell id="Kc1DCktLpZiaPYpmETjj-3" value="&lt;font style=&quot;font-size: 18px;&quot;&gt;8&lt;/font&gt;" style="ellipse;whiteSpace=wrap;html=1;aspect=fixed;fillColor=#e1d5e7;strokeColor=#9673a6;fontStyle=1" vertex="1" parent="5M29ZxuVkydaEtLrXNj4-16">
          <mxGeometry x="-20" y="340" width="30" height="30" as="geometry" />
        </mxCell>
        <mxCell id="Kc1DCktLpZiaPYpmETjj-4" value="Actor" style="shape=umlActor;verticalLabelPosition=bottom;verticalAlign=top;html=1;outlineConnect=0;" vertex="1" parent="5M29ZxuVkydaEtLrXNj4-16">
          <mxGeometry x="-70" y="355" width="30" height="60" as="geometry" />
        </mxCell>
        <mxCell id="Kc1DCktLpZiaPYpmETjj-5" style="edgeStyle=orthogonalEdgeStyle;rounded=0;orthogonalLoop=1;jettySize=auto;html=1;exitX=0.25;exitY=1;exitDx=0;exitDy=0;entryX=1;entryY=0.3333333333333333;entryDx=0;entryDy=0;entryPerimeter=0;fillColor=#e1d5e7;strokeColor=#9673a6;" edge="1" parent="5M29ZxuVkydaEtLrXNj4-16" source="5M29ZxuVkydaEtLrXNj4-1" target="Kc1DCktLpZiaPYpmETjj-4">
          <mxGeometry relative="1" as="geometry" />
        </mxCell>
        <mxCell id="Kc1DCktLpZiaPYpmETjj-6" value="Data" style="edgeLabel;html=1;align=center;verticalAlign=middle;resizable=0;points=[];" vertex="1" connectable="0" parent="Kc1DCktLpZiaPYpmETjj-5">
          <mxGeometry x="0.559" relative="1" as="geometry">
            <mxPoint as="offset" />
          </mxGeometry>
        </mxCell>
      </root>
    </mxGraphModel>
  </diagram>
  <diagram id="tU5IS5M5VUzlkbRqm4kK" name="IDs">
    <mxGraphModel dx="1234" dy="1156" grid="1" gridSize="10" guides="1" tooltips="1" connect="1" arrows="1" fold="1" page="1" pageScale="1" pageWidth="850" pageHeight="1100" math="0" shadow="0">
      <root>
        <mxCell id="0" />
        <mxCell id="1" parent="0" />
        <mxCell id="Bq-5iGm-z__EinjWSJYM-8" style="edgeStyle=orthogonalEdgeStyle;rounded=0;orthogonalLoop=1;jettySize=auto;html=1;exitX=0;exitY=0.75;exitDx=0;exitDy=0;entryX=0;entryY=0.5;entryDx=0;entryDy=0;" edge="1" parent="1" source="Bq-5iGm-z__EinjWSJYM-1" target="Bq-5iGm-z__EinjWSJYM-7">
          <mxGeometry relative="1" as="geometry" />
        </mxCell>
        <mxCell id="Bq-5iGm-z__EinjWSJYM-1" value="WorkerID" style="rounded=1;whiteSpace=wrap;html=1;" vertex="1" parent="1">
          <mxGeometry x="440" y="210" width="120" height="30" as="geometry" />
        </mxCell>
        <mxCell id="Bq-5iGm-z__EinjWSJYM-5" style="edgeStyle=orthogonalEdgeStyle;rounded=0;orthogonalLoop=1;jettySize=auto;html=1;exitX=0;exitY=1;exitDx=0;exitDy=0;entryX=0;entryY=0.5;entryDx=0;entryDy=0;" edge="1" parent="1" source="Bq-5iGm-z__EinjWSJYM-2" target="Bq-5iGm-z__EinjWSJYM-3">
          <mxGeometry relative="1" as="geometry" />
        </mxCell>
        <mxCell id="Bq-5iGm-z__EinjWSJYM-2" value="JobID" style="rounded=1;whiteSpace=wrap;html=1;" vertex="1" parent="1">
          <mxGeometry x="180" y="210" width="120" height="30" as="geometry" />
        </mxCell>
        <mxCell id="Bq-5iGm-z__EinjWSJYM-3" value="TaskID" style="rounded=1;whiteSpace=wrap;html=1;" vertex="1" parent="1">
          <mxGeometry x="210" y="260" width="120" height="30" as="geometry" />
        </mxCell>
        <mxCell id="Bq-5iGm-z__EinjWSJYM-4" value="SlotID" style="rounded=1;whiteSpace=wrap;html=1;" vertex="1" parent="1">
          <mxGeometry x="450" y="260" width="120" height="30" as="geometry" />
        </mxCell>
        <mxCell id="Bq-5iGm-z__EinjWSJYM-7" value="SlotID" style="rounded=1;whiteSpace=wrap;html=1;" vertex="1" parent="1">
          <mxGeometry x="460" y="270" width="120" height="30" as="geometry" />
        </mxCell>
        <mxCell id="Bq-5iGm-z__EinjWSJYM-9" value="TaskID" style="rounded=1;whiteSpace=wrap;html=1;" vertex="1" parent="1">
          <mxGeometry x="220" y="270" width="120" height="30" as="geometry" />
        </mxCell>
        <mxCell id="Bq-5iGm-z__EinjWSJYM-14" style="edgeStyle=orthogonalEdgeStyle;rounded=0;orthogonalLoop=1;jettySize=auto;html=1;exitX=0;exitY=1;exitDx=0;exitDy=0;entryX=0;entryY=0.5;entryDx=0;entryDy=0;" edge="1" parent="1" source="Bq-5iGm-z__EinjWSJYM-10" target="Bq-5iGm-z__EinjWSJYM-12">
          <mxGeometry relative="1" as="geometry" />
        </mxCell>
        <mxCell id="Bq-5iGm-z__EinjWSJYM-10" value="WorkerState" style="rounded=1;whiteSpace=wrap;html=1;" vertex="1" parent="1">
          <mxGeometry x="330" y="370" width="120" height="30" as="geometry" />
        </mxCell>
        <mxCell id="Bq-5iGm-z__EinjWSJYM-11" value="SlotState" style="rounded=1;whiteSpace=wrap;html=1;" vertex="1" parent="1">
          <mxGeometry x="350" y="420" width="120" height="30" as="geometry" />
        </mxCell>
        <mxCell id="Bq-5iGm-z__EinjWSJYM-16" style="edgeStyle=orthogonalEdgeStyle;rounded=0;orthogonalLoop=1;jettySize=auto;html=1;exitX=0;exitY=1;exitDx=0;exitDy=0;entryX=0;entryY=0.5;entryDx=0;entryDy=0;" edge="1" parent="1" source="Bq-5iGm-z__EinjWSJYM-12" target="Bq-5iGm-z__EinjWSJYM-13">
          <mxGeometry relative="1" as="geometry" />
        </mxCell>
        <mxCell id="Bq-5iGm-z__EinjWSJYM-12" value="SlotState" style="rounded=1;whiteSpace=wrap;html=1;" vertex="1" parent="1">
          <mxGeometry x="360" y="430" width="120" height="30" as="geometry" />
        </mxCell>
        <mxCell id="Bq-5iGm-z__EinjWSJYM-13" value="TaskState" style="rounded=1;whiteSpace=wrap;html=1;" vertex="1" parent="1">
          <mxGeometry x="400" y="480" width="120" height="30" as="geometry" />
        </mxCell>
      </root>
    </mxGraphModel>
  </diagram>
  <diagram id="eezcJDb51FSJ_w1T1R4z" name="WordCount">
    <mxGraphModel dx="949" dy="889" grid="1" gridSize="10" guides="1" tooltips="1" connect="1" arrows="1" fold="1" page="1" pageScale="1" pageWidth="850" pageHeight="1100" math="0" shadow="0">
      <root>
        <mxCell id="0" />
        <mxCell id="f065Jo39OTBTOz5-seM--24" value="Untitled Layer" style="" parent="0" />
        <mxCell id="f065Jo39OTBTOz5-seM--25" value="" style="rounded=1;whiteSpace=wrap;html=1;" vertex="1" parent="f065Jo39OTBTOz5-seM--24">
          <mxGeometry x="20" y="280" width="150" height="200" as="geometry" />
        </mxCell>
        <mxCell id="1" style="" parent="0" />
        <mxCell id="f065Jo39OTBTOz5-seM--8" style="rounded=0;orthogonalLoop=1;jettySize=auto;html=1;exitX=1;exitY=0.5;exitDx=0;exitDy=0;entryX=0;entryY=0.5;entryDx=0;entryDy=0;" edge="1" parent="1" source="f065Jo39OTBTOz5-seM--1" target="f065Jo39OTBTOz5-seM--4">
          <mxGeometry relative="1" as="geometry" />
        </mxCell>
        <mxCell id="f065Jo39OTBTOz5-seM--1" value="Deer Bear River" style="rounded=0;whiteSpace=wrap;html=1;" vertex="1" parent="1">
          <mxGeometry x="30" y="310" width="120" height="30" as="geometry" />
        </mxCell>
        <mxCell id="f065Jo39OTBTOz5-seM--9" style="edgeStyle=orthogonalEdgeStyle;rounded=0;orthogonalLoop=1;jettySize=auto;html=1;exitX=1;exitY=0.5;exitDx=0;exitDy=0;" edge="1" parent="1" source="f065Jo39OTBTOz5-seM--2" target="f065Jo39OTBTOz5-seM--5">
          <mxGeometry relative="1" as="geometry" />
        </mxCell>
        <mxCell id="f065Jo39OTBTOz5-seM--2" value="Car Car River" style="rounded=0;whiteSpace=wrap;html=1;" vertex="1" parent="1">
          <mxGeometry x="30" y="370" width="120" height="30" as="geometry" />
        </mxCell>
        <mxCell id="f065Jo39OTBTOz5-seM--10" style="rounded=0;orthogonalLoop=1;jettySize=auto;html=1;exitX=1;exitY=0.5;exitDx=0;exitDy=0;entryX=0;entryY=0.5;entryDx=0;entryDy=0;" edge="1" parent="1" source="f065Jo39OTBTOz5-seM--3" target="f065Jo39OTBTOz5-seM--6">
          <mxGeometry relative="1" as="geometry" />
        </mxCell>
        <mxCell id="f065Jo39OTBTOz5-seM--3" value="Deer Car Bear" style="rounded=0;whiteSpace=wrap;html=1;" vertex="1" parent="1">
          <mxGeometry x="30" y="430" width="120" height="30" as="geometry" />
        </mxCell>
        <mxCell id="f065Jo39OTBTOz5-seM--18" style="edgeStyle=orthogonalEdgeStyle;rounded=0;orthogonalLoop=1;jettySize=auto;html=1;exitX=1;exitY=0.5;exitDx=0;exitDy=0;" edge="1" parent="1" source="f065Jo39OTBTOz5-seM--4" target="f065Jo39OTBTOz5-seM--11">
          <mxGeometry relative="1" as="geometry" />
        </mxCell>
        <mxCell id="f065Jo39OTBTOz5-seM--4" value="Deer Bear River" style="rounded=0;whiteSpace=wrap;html=1;" vertex="1" parent="1">
          <mxGeometry x="210" y="290" width="120" height="30" as="geometry" />
        </mxCell>
        <mxCell id="f065Jo39OTBTOz5-seM--19" style="edgeStyle=orthogonalEdgeStyle;rounded=0;orthogonalLoop=1;jettySize=auto;html=1;exitX=1;exitY=0.5;exitDx=0;exitDy=0;" edge="1" parent="1" source="f065Jo39OTBTOz5-seM--5" target="f065Jo39OTBTOz5-seM--14">
          <mxGeometry relative="1" as="geometry" />
        </mxCell>
        <mxCell id="f065Jo39OTBTOz5-seM--5" value="Car Car River" style="rounded=0;whiteSpace=wrap;html=1;" vertex="1" parent="1">
          <mxGeometry x="210" y="370" width="120" height="30" as="geometry" />
        </mxCell>
        <mxCell id="f065Jo39OTBTOz5-seM--20" style="edgeStyle=orthogonalEdgeStyle;rounded=0;orthogonalLoop=1;jettySize=auto;html=1;exitX=1;exitY=0.5;exitDx=0;exitDy=0;" edge="1" parent="1" source="f065Jo39OTBTOz5-seM--6" target="f065Jo39OTBTOz5-seM--15">
          <mxGeometry relative="1" as="geometry" />
        </mxCell>
        <mxCell id="f065Jo39OTBTOz5-seM--6" value="Deer Car Bear" style="rounded=0;whiteSpace=wrap;html=1;" vertex="1" parent="1">
          <mxGeometry x="210" y="450" width="120" height="30" as="geometry" />
        </mxCell>
        <mxCell id="f065Jo39OTBTOz5-seM--21" style="rounded=0;orthogonalLoop=1;jettySize=auto;html=1;exitX=1;exitY=0.5;exitDx=0;exitDy=0;entryX=0;entryY=0.5;entryDx=0;entryDy=0;" edge="1" parent="1" source="f065Jo39OTBTOz5-seM--11" target="f065Jo39OTBTOz5-seM--17">
          <mxGeometry relative="1" as="geometry" />
        </mxCell>
        <mxCell id="f065Jo39OTBTOz5-seM--11" value="Deer, 1&lt;br&gt;Bear, 1&lt;br&gt;River, 1" style="rounded=0;whiteSpace=wrap;html=1;" vertex="1" parent="1">
          <mxGeometry x="420" y="280" width="120" height="50" as="geometry" />
        </mxCell>
        <mxCell id="f065Jo39OTBTOz5-seM--23" style="edgeStyle=orthogonalEdgeStyle;rounded=0;orthogonalLoop=1;jettySize=auto;html=1;exitX=1;exitY=0.5;exitDx=0;exitDy=0;" edge="1" parent="1" source="f065Jo39OTBTOz5-seM--14" target="f065Jo39OTBTOz5-seM--17">
          <mxGeometry relative="1" as="geometry" />
        </mxCell>
        <mxCell id="f065Jo39OTBTOz5-seM--14" value="Car, 2&lt;br&gt;River, 1" style="rounded=0;whiteSpace=wrap;html=1;" vertex="1" parent="1">
          <mxGeometry x="420" y="360" width="120" height="50" as="geometry" />
        </mxCell>
        <mxCell id="f065Jo39OTBTOz5-seM--22" style="rounded=0;orthogonalLoop=1;jettySize=auto;html=1;exitX=1;exitY=0.5;exitDx=0;exitDy=0;entryX=0;entryY=0.5;entryDx=0;entryDy=0;" edge="1" parent="1" source="f065Jo39OTBTOz5-seM--15" target="f065Jo39OTBTOz5-seM--17">
          <mxGeometry relative="1" as="geometry" />
        </mxCell>
        <mxCell id="f065Jo39OTBTOz5-seM--15" value="Deer, 1&lt;br&gt;Car, 1&lt;br&gt;Bear, 1" style="rounded=0;whiteSpace=wrap;html=1;" vertex="1" parent="1">
          <mxGeometry x="420" y="440" width="120" height="50" as="geometry" />
        </mxCell>
        <mxCell id="f065Jo39OTBTOz5-seM--17" value="Bear, 2&lt;br&gt;Car, 3&lt;br&gt;Deer, 2&lt;br&gt;River, 2" style="rounded=0;whiteSpace=wrap;html=1;" vertex="1" parent="1">
          <mxGeometry x="620" y="345" width="120" height="80" as="geometry" />
        </mxCell>
        <mxCell id="bjVOHg0guuykAEQXdz0c-1" value="Worker" style="text;html=1;strokeColor=none;fillColor=none;align=center;verticalAlign=middle;whiteSpace=wrap;rounded=0;fontStyle=1" vertex="1" parent="1">
          <mxGeometry x="240" y="220" width="60" height="30" as="geometry" />
        </mxCell>
        <mxCell id="bjVOHg0guuykAEQXdz0c-2" value="File System Output" style="text;html=1;strokeColor=none;fillColor=none;align=center;verticalAlign=middle;whiteSpace=wrap;rounded=0;fontStyle=1" vertex="1" parent="1">
          <mxGeometry x="415" y="220" width="130" height="30" as="geometry" />
        </mxCell>
        <mxCell id="bjVOHg0guuykAEQXdz0c-3" value="Input" style="text;html=1;strokeColor=none;fillColor=none;align=center;verticalAlign=middle;whiteSpace=wrap;rounded=0;fontStyle=1" vertex="1" parent="1">
          <mxGeometry x="60" y="220" width="60" height="30" as="geometry" />
        </mxCell>
        <mxCell id="bjVOHg0guuykAEQXdz0c-4" value="Leader" style="text;html=1;strokeColor=none;fillColor=none;align=center;verticalAlign=middle;whiteSpace=wrap;rounded=0;fontStyle=1" vertex="1" parent="1">
          <mxGeometry x="635" y="220" width="90" height="30" as="geometry" />
        </mxCell>
      </root>
    </mxGraphModel>
  </diagram>
  <diagram id="CmM63j5eOzOMxPgafefP" name="JobStateMachine">
    <mxGraphModel dx="855" dy="619" grid="1" gridSize="10" guides="1" tooltips="1" connect="1" arrows="1" fold="1" page="1" pageScale="1" pageWidth="850" pageHeight="1100" math="0" shadow="0">
      <root>
        <mxCell id="0" />
        <mxCell id="1" parent="0" />
        <mxCell id="QNmnFuj3bQpNm3RvE_E_-8" style="edgeStyle=orthogonalEdgeStyle;rounded=0;orthogonalLoop=1;jettySize=auto;html=1;exitX=0.5;exitY=0;exitDx=0;exitDy=0;entryX=0.5;entryY=0;entryDx=0;entryDy=0;curved=1;" edge="1" parent="1" source="QNmnFuj3bQpNm3RvE_E_-1" target="QNmnFuj3bQpNm3RvE_E_-3">
          <mxGeometry relative="1" as="geometry" />
        </mxCell>
        <mxCell id="QNmnFuj3bQpNm3RvE_E_-21" value="Starting" style="edgeLabel;html=1;align=center;verticalAlign=middle;resizable=0;points=[];" vertex="1" connectable="0" parent="QNmnFuj3bQpNm3RvE_E_-8">
          <mxGeometry x="-0.0704" relative="1" as="geometry">
            <mxPoint as="offset" />
          </mxGeometry>
        </mxCell>
        <mxCell id="QNmnFuj3bQpNm3RvE_E_-23" style="edgeStyle=orthogonalEdgeStyle;rounded=0;orthogonalLoop=1;jettySize=auto;html=1;exitX=0.5;exitY=1;exitDx=0;exitDy=0;entryX=0;entryY=0.5;entryDx=0;entryDy=0;curved=1;" edge="1" parent="1" source="QNmnFuj3bQpNm3RvE_E_-1" target="QNmnFuj3bQpNm3RvE_E_-22">
          <mxGeometry relative="1" as="geometry" />
        </mxCell>
        <mxCell id="QNmnFuj3bQpNm3RvE_E_-24" value="No worker slots&lt;br&gt;available" style="edgeLabel;html=1;align=center;verticalAlign=middle;resizable=0;points=[];" vertex="1" connectable="0" parent="QNmnFuj3bQpNm3RvE_E_-23">
          <mxGeometry x="-0.3928" y="23" relative="1" as="geometry">
            <mxPoint x="-8" as="offset" />
          </mxGeometry>
        </mxCell>
        <mxCell id="QNmnFuj3bQpNm3RvE_E_-1" value="Not Started" style="rounded=1;whiteSpace=wrap;html=1;fillColor=#fff2cc;strokeColor=#d6b656;" vertex="1" parent="1">
          <mxGeometry x="250" y="440" width="90" height="30" as="geometry" />
        </mxCell>
        <mxCell id="QNmnFuj3bQpNm3RvE_E_-9" style="edgeStyle=orthogonalEdgeStyle;rounded=0;orthogonalLoop=1;jettySize=auto;html=1;exitX=0.5;exitY=0;exitDx=0;exitDy=0;entryX=0;entryY=0.5;entryDx=0;entryDy=0;elbow=vertical;curved=1;" edge="1" parent="1" source="QNmnFuj3bQpNm3RvE_E_-3" target="QNmnFuj3bQpNm3RvE_E_-4">
          <mxGeometry relative="1" as="geometry" />
        </mxCell>
        <mxCell id="QNmnFuj3bQpNm3RvE_E_-19" value="Success" style="edgeLabel;html=1;align=center;verticalAlign=middle;resizable=0;points=[];" vertex="1" connectable="0" parent="QNmnFuj3bQpNm3RvE_E_-9">
          <mxGeometry x="-0.1529" y="-2" relative="1" as="geometry">
            <mxPoint as="offset" />
          </mxGeometry>
        </mxCell>
        <mxCell id="QNmnFuj3bQpNm3RvE_E_-13" style="edgeStyle=orthogonalEdgeStyle;rounded=0;orthogonalLoop=1;jettySize=auto;html=1;exitX=0.5;exitY=0;exitDx=0;exitDy=0;entryX=0;entryY=0.5;entryDx=0;entryDy=0;elbow=vertical;curved=1;" edge="1" parent="1" source="QNmnFuj3bQpNm3RvE_E_-3" target="QNmnFuj3bQpNm3RvE_E_-5">
          <mxGeometry relative="1" as="geometry" />
        </mxCell>
        <mxCell id="QNmnFuj3bQpNm3RvE_E_-18" value="Failure" style="edgeLabel;html=1;align=center;verticalAlign=middle;resizable=0;points=[];" vertex="1" connectable="0" parent="QNmnFuj3bQpNm3RvE_E_-13">
          <mxGeometry x="0.1604" y="-8" relative="1" as="geometry">
            <mxPoint as="offset" />
          </mxGeometry>
        </mxCell>
        <mxCell id="QNmnFuj3bQpNm3RvE_E_-3" value="InProgress" style="rounded=1;whiteSpace=wrap;html=1;fillColor=#ffe6cc;strokeColor=#d79b00;" vertex="1" parent="1">
          <mxGeometry x="390" y="440" width="90" height="30" as="geometry" />
        </mxCell>
        <mxCell id="QNmnFuj3bQpNm3RvE_E_-4" value="Done" style="rounded=1;whiteSpace=wrap;html=1;fillColor=#d5e8d4;strokeColor=#82b366;" vertex="1" parent="1">
          <mxGeometry x="550" y="440" width="90" height="30" as="geometry" />
        </mxCell>
        <mxCell id="QNmnFuj3bQpNm3RvE_E_-15" style="edgeStyle=orthogonalEdgeStyle;rounded=0;orthogonalLoop=1;jettySize=auto;html=1;exitX=0.5;exitY=0;exitDx=0;exitDy=0;curved=1;" edge="1" parent="1" source="QNmnFuj3bQpNm3RvE_E_-5" target="QNmnFuj3bQpNm3RvE_E_-1">
          <mxGeometry relative="1" as="geometry" />
        </mxCell>
        <mxCell id="yXATsuUxfbAs6_ewLK-D-7" value="Retries available" style="edgeLabel;html=1;align=center;verticalAlign=middle;resizable=0;points=[];" vertex="1" connectable="0" parent="QNmnFuj3bQpNm3RvE_E_-15">
          <mxGeometry x="-0.1017" y="3" relative="1" as="geometry">
            <mxPoint x="15" y="-3" as="offset" />
          </mxGeometry>
        </mxCell>
        <mxCell id="QNmnFuj3bQpNm3RvE_E_-5" value="Error" style="rounded=1;whiteSpace=wrap;html=1;fillColor=#f8cecc;strokeColor=#b85450;" vertex="1" parent="1">
          <mxGeometry x="550" y="380" width="90" height="30" as="geometry" />
        </mxCell>
        <mxCell id="QNmnFuj3bQpNm3RvE_E_-7" style="edgeStyle=orthogonalEdgeStyle;rounded=0;orthogonalLoop=1;jettySize=auto;html=1;exitX=0.5;exitY=0;exitDx=0;exitDy=0;entryX=0.5;entryY=0;entryDx=0;entryDy=0;curved=1;" edge="1" parent="1" source="QNmnFuj3bQpNm3RvE_E_-6" target="QNmnFuj3bQpNm3RvE_E_-1">
          <mxGeometry relative="1" as="geometry" />
        </mxCell>
        <mxCell id="QNmnFuj3bQpNm3RvE_E_-20" value="Zero State" style="edgeLabel;html=1;align=center;verticalAlign=middle;resizable=0;points=[];" vertex="1" connectable="0" parent="QNmnFuj3bQpNm3RvE_E_-7">
          <mxGeometry x="-0.163" relative="1" as="geometry">
            <mxPoint as="offset" />
          </mxGeometry>
        </mxCell>
        <mxCell id="QNmnFuj3bQpNm3RvE_E_-6" value="Missing" style="rounded=1;whiteSpace=wrap;html=1;fillColor=#f5f5f5;fontColor=#333333;strokeColor=#666666;" vertex="1" parent="1">
          <mxGeometry x="110" y="440" width="90" height="30" as="geometry" />
        </mxCell>
        <mxCell id="QNmnFuj3bQpNm3RvE_E_-14" style="edgeStyle=orthogonalEdgeStyle;rounded=0;orthogonalLoop=1;jettySize=auto;html=1;exitX=0.75;exitY=1;exitDx=0;exitDy=0;entryX=0.25;entryY=1;entryDx=0;entryDy=0;curved=1;" edge="1" parent="1" source="QNmnFuj3bQpNm3RvE_E_-3" target="QNmnFuj3bQpNm3RvE_E_-3">
          <mxGeometry relative="1" as="geometry" />
        </mxCell>
        <mxCell id="QNmnFuj3bQpNm3RvE_E_-16" value="Not complete" style="edgeLabel;html=1;align=center;verticalAlign=middle;resizable=0;points=[];" vertex="1" connectable="0" parent="QNmnFuj3bQpNm3RvE_E_-14">
          <mxGeometry x="0.0314" relative="1" as="geometry">
            <mxPoint x="2" y="10" as="offset" />
          </mxGeometry>
        </mxCell>
        <mxCell id="QNmnFuj3bQpNm3RvE_E_-25" style="edgeStyle=orthogonalEdgeStyle;rounded=0;orthogonalLoop=1;jettySize=auto;html=1;exitX=1;exitY=0.5;exitDx=0;exitDy=0;entryX=1;entryY=0.5;entryDx=0;entryDy=0;curved=1;" edge="1" parent="1" source="QNmnFuj3bQpNm3RvE_E_-22" target="QNmnFuj3bQpNm3RvE_E_-3">
          <mxGeometry relative="1" as="geometry" />
        </mxCell>
        <mxCell id="QNmnFuj3bQpNm3RvE_E_-26" value="Worker Slot&lt;br&gt;available" style="edgeLabel;html=1;align=center;verticalAlign=middle;resizable=0;points=[];" vertex="1" connectable="0" parent="QNmnFuj3bQpNm3RvE_E_-25">
          <mxGeometry x="-0.177" relative="1" as="geometry">
            <mxPoint as="offset" />
          </mxGeometry>
        </mxCell>
        <mxCell id="QNmnFuj3bQpNm3RvE_E_-22" value="Halted" style="rounded=1;whiteSpace=wrap;html=1;fillColor=#fff2cc;strokeColor=#d6b656;" vertex="1" parent="1">
          <mxGeometry x="390" y="550" width="90" height="30" as="geometry" />
        </mxCell>
      </root>
    </mxGraphModel>
  </diagram>
  <diagram name="TaskStateMachine" id="FCeobxZ2Th6MVmxPegNy">
    <mxGraphModel dx="1026" dy="743" grid="1" gridSize="10" guides="1" tooltips="1" connect="1" arrows="1" fold="1" page="1" pageScale="1" pageWidth="850" pageHeight="1100" math="0" shadow="0">
      <root>
        <mxCell id="1RpATiFQqg2E1hI0uz75-0" />
        <mxCell id="1RpATiFQqg2E1hI0uz75-1" parent="1RpATiFQqg2E1hI0uz75-0" />
        <mxCell id="1RpATiFQqg2E1hI0uz75-2" style="edgeStyle=orthogonalEdgeStyle;rounded=0;orthogonalLoop=1;jettySize=auto;html=1;exitX=0.5;exitY=0;exitDx=0;exitDy=0;entryX=0.5;entryY=0;entryDx=0;entryDy=0;curved=1;" edge="1" parent="1RpATiFQqg2E1hI0uz75-1" source="1RpATiFQqg2E1hI0uz75-6" target="1RpATiFQqg2E1hI0uz75-13">
          <mxGeometry relative="1" as="geometry" />
        </mxCell>
        <mxCell id="1RpATiFQqg2E1hI0uz75-3" value="Starting" style="edgeLabel;html=1;align=center;verticalAlign=middle;resizable=0;points=[];" vertex="1" connectable="0" parent="1RpATiFQqg2E1hI0uz75-2">
          <mxGeometry x="-0.0704" relative="1" as="geometry">
            <mxPoint as="offset" />
          </mxGeometry>
        </mxCell>
        <mxCell id="1RpATiFQqg2E1hI0uz75-6" value="Not Started" style="rounded=1;whiteSpace=wrap;html=1;fillColor=#fff2cc;strokeColor=#d6b656;" vertex="1" parent="1RpATiFQqg2E1hI0uz75-1">
          <mxGeometry x="250" y="440" width="90" height="30" as="geometry" />
        </mxCell>
        <mxCell id="1RpATiFQqg2E1hI0uz75-7" style="edgeStyle=orthogonalEdgeStyle;rounded=0;orthogonalLoop=1;jettySize=auto;html=1;exitX=0.5;exitY=0;exitDx=0;exitDy=0;entryX=0;entryY=0.5;entryDx=0;entryDy=0;elbow=vertical;curved=1;" edge="1" parent="1RpATiFQqg2E1hI0uz75-1" source="1RpATiFQqg2E1hI0uz75-13" target="1RpATiFQqg2E1hI0uz75-14">
          <mxGeometry relative="1" as="geometry" />
        </mxCell>
        <mxCell id="1RpATiFQqg2E1hI0uz75-8" value="Success" style="edgeLabel;html=1;align=center;verticalAlign=middle;resizable=0;points=[];" vertex="1" connectable="0" parent="1RpATiFQqg2E1hI0uz75-7">
          <mxGeometry x="-0.1529" y="-2" relative="1" as="geometry">
            <mxPoint as="offset" />
          </mxGeometry>
        </mxCell>
        <mxCell id="1RpATiFQqg2E1hI0uz75-9" style="edgeStyle=orthogonalEdgeStyle;rounded=0;orthogonalLoop=1;jettySize=auto;html=1;exitX=0.5;exitY=0;exitDx=0;exitDy=0;entryX=0;entryY=0.5;entryDx=0;entryDy=0;elbow=vertical;curved=1;" edge="1" parent="1RpATiFQqg2E1hI0uz75-1" source="1RpATiFQqg2E1hI0uz75-13" target="1RpATiFQqg2E1hI0uz75-17">
          <mxGeometry relative="1" as="geometry" />
        </mxCell>
        <mxCell id="1RpATiFQqg2E1hI0uz75-10" value="Failure" style="edgeLabel;html=1;align=center;verticalAlign=middle;resizable=0;points=[];" vertex="1" connectable="0" parent="1RpATiFQqg2E1hI0uz75-9">
          <mxGeometry x="0.1604" y="-8" relative="1" as="geometry">
            <mxPoint as="offset" />
          </mxGeometry>
        </mxCell>
        <mxCell id="1RpATiFQqg2E1hI0uz75-13" value="InProgress" style="rounded=1;whiteSpace=wrap;html=1;fillColor=#ffe6cc;strokeColor=#d79b00;" vertex="1" parent="1RpATiFQqg2E1hI0uz75-1">
          <mxGeometry x="390" y="440" width="90" height="30" as="geometry" />
        </mxCell>
        <mxCell id="1RpATiFQqg2E1hI0uz75-14" value="Done" style="rounded=1;whiteSpace=wrap;html=1;fillColor=#d5e8d4;strokeColor=#82b366;" vertex="1" parent="1RpATiFQqg2E1hI0uz75-1">
          <mxGeometry x="550" y="440" width="90" height="30" as="geometry" />
        </mxCell>
        <mxCell id="1RpATiFQqg2E1hI0uz75-15" style="edgeStyle=orthogonalEdgeStyle;rounded=0;orthogonalLoop=1;jettySize=auto;html=1;exitX=0.5;exitY=0;exitDx=0;exitDy=0;curved=1;" edge="1" parent="1RpATiFQqg2E1hI0uz75-1" source="1RpATiFQqg2E1hI0uz75-17" target="1RpATiFQqg2E1hI0uz75-6">
          <mxGeometry relative="1" as="geometry" />
        </mxCell>
        <mxCell id="1RpATiFQqg2E1hI0uz75-16" value="Retries available" style="edgeLabel;html=1;align=center;verticalAlign=middle;resizable=0;points=[];" vertex="1" connectable="0" parent="1RpATiFQqg2E1hI0uz75-15">
          <mxGeometry x="-0.1017" y="3" relative="1" as="geometry">
            <mxPoint x="15" y="-3" as="offset" />
          </mxGeometry>
        </mxCell>
        <mxCell id="1RpATiFQqg2E1hI0uz75-17" value="Error" style="rounded=1;whiteSpace=wrap;html=1;fillColor=#f8cecc;strokeColor=#b85450;" vertex="1" parent="1RpATiFQqg2E1hI0uz75-1">
          <mxGeometry x="550" y="380" width="90" height="30" as="geometry" />
        </mxCell>
        <mxCell id="1RpATiFQqg2E1hI0uz75-21" style="edgeStyle=orthogonalEdgeStyle;rounded=0;orthogonalLoop=1;jettySize=auto;html=1;exitX=0.75;exitY=1;exitDx=0;exitDy=0;entryX=0.25;entryY=1;entryDx=0;entryDy=0;curved=1;" edge="1" parent="1RpATiFQqg2E1hI0uz75-1" source="1RpATiFQqg2E1hI0uz75-13" target="1RpATiFQqg2E1hI0uz75-13">
          <mxGeometry relative="1" as="geometry" />
        </mxCell>
        <mxCell id="1RpATiFQqg2E1hI0uz75-22" value="Not complete" style="edgeLabel;html=1;align=center;verticalAlign=middle;resizable=0;points=[];" vertex="1" connectable="0" parent="1RpATiFQqg2E1hI0uz75-21">
          <mxGeometry x="0.0314" relative="1" as="geometry">
            <mxPoint x="2" y="10" as="offset" />
          </mxGeometry>
        </mxCell>
      </root>
    </mxGraphModel>
  </diagram>
  <diagram name="AssignmentStateMachine" id="OirJDxSyHboVFhEquHFg">
    <mxGraphModel dx="1026" dy="743" grid="1" gridSize="10" guides="1" tooltips="1" connect="1" arrows="1" fold="1" page="1" pageScale="1" pageWidth="850" pageHeight="1100" math="0" shadow="0">
      <root>
        <mxCell id="DkWKNMVOuN_bDpp0_eJ0-0" />
        <mxCell id="DkWKNMVOuN_bDpp0_eJ0-1" parent="DkWKNMVOuN_bDpp0_eJ0-0" />
        <mxCell id="DQ3dP0kI8c5dlUu0x9XH-5" style="edgeStyle=orthogonalEdgeStyle;rounded=0;orthogonalLoop=1;jettySize=auto;html=1;exitX=0.5;exitY=1;exitDx=0;exitDy=0;entryX=0.5;entryY=1;entryDx=0;entryDy=0;curved=1;" edge="1" parent="DkWKNMVOuN_bDpp0_eJ0-1" source="DkWKNMVOuN_bDpp0_eJ0-6" target="DkWKNMVOuN_bDpp0_eJ0-20">
          <mxGeometry relative="1" as="geometry" />
        </mxCell>
        <mxCell id="DkWKNMVOuN_bDpp0_eJ0-6" value="PartiallyAssigned" style="rounded=1;whiteSpace=wrap;html=1;fillColor=#fff2cc;strokeColor=#d6b656;" vertex="1" parent="DkWKNMVOuN_bDpp0_eJ0-1">
          <mxGeometry x="250" y="440" width="100" height="30" as="geometry" />
        </mxCell>
        <mxCell id="DkWKNMVOuN_bDpp0_eJ0-18" style="edgeStyle=orthogonalEdgeStyle;rounded=0;orthogonalLoop=1;jettySize=auto;html=1;exitX=0.5;exitY=0;exitDx=0;exitDy=0;entryX=0.5;entryY=0;entryDx=0;entryDy=0;curved=1;" edge="1" parent="DkWKNMVOuN_bDpp0_eJ0-1" source="DkWKNMVOuN_bDpp0_eJ0-20" target="DkWKNMVOuN_bDpp0_eJ0-6">
          <mxGeometry relative="1" as="geometry" />
        </mxCell>
        <mxCell id="DQ3dP0kI8c5dlUu0x9XH-4" value="Open tasks not empty" style="edgeLabel;html=1;align=center;verticalAlign=middle;resizable=0;points=[];" vertex="1" connectable="0" parent="DkWKNMVOuN_bDpp0_eJ0-18">
          <mxGeometry x="-0.1027" y="-1" relative="1" as="geometry">
            <mxPoint x="12" as="offset" />
          </mxGeometry>
        </mxCell>
        <mxCell id="DQ3dP0kI8c5dlUu0x9XH-2" style="edgeStyle=orthogonalEdgeStyle;rounded=0;orthogonalLoop=1;jettySize=auto;html=1;exitX=0.5;exitY=0;exitDx=0;exitDy=0;entryX=0.5;entryY=0;entryDx=0;entryDy=0;curved=1;" edge="1" parent="DkWKNMVOuN_bDpp0_eJ0-1" source="DkWKNMVOuN_bDpp0_eJ0-20" target="DQ3dP0kI8c5dlUu0x9XH-1">
          <mxGeometry relative="1" as="geometry">
            <Array as="points">
              <mxPoint x="155" y="400" />
              <mxPoint x="460" y="400" />
            </Array>
          </mxGeometry>
        </mxCell>
        <mxCell id="DQ3dP0kI8c5dlUu0x9XH-3" value="Open tasks empty" style="edgeLabel;html=1;align=center;verticalAlign=middle;resizable=0;points=[];" vertex="1" connectable="0" parent="DQ3dP0kI8c5dlUu0x9XH-2">
          <mxGeometry x="0.0026" y="2" relative="1" as="geometry">
            <mxPoint as="offset" />
          </mxGeometry>
        </mxCell>
        <mxCell id="DkWKNMVOuN_bDpp0_eJ0-20" value="NotAssigned" style="rounded=1;whiteSpace=wrap;html=1;fillColor=#f8cecc;strokeColor=#b85450;" vertex="1" parent="DkWKNMVOuN_bDpp0_eJ0-1">
          <mxGeometry x="110" y="440" width="90" height="30" as="geometry" />
        </mxCell>
        <mxCell id="DQ3dP0kI8c5dlUu0x9XH-6" style="edgeStyle=orthogonalEdgeStyle;rounded=0;orthogonalLoop=1;jettySize=auto;html=1;exitX=0.5;exitY=1;exitDx=0;exitDy=0;entryX=0.5;entryY=1;entryDx=0;entryDy=0;curved=1;" edge="1" parent="DkWKNMVOuN_bDpp0_eJ0-1" source="DQ3dP0kI8c5dlUu0x9XH-1" target="DkWKNMVOuN_bDpp0_eJ0-6">
          <mxGeometry relative="1" as="geometry" />
        </mxCell>
        <mxCell id="DQ3dP0kI8c5dlUu0x9XH-7" style="edgeStyle=orthogonalEdgeStyle;rounded=0;orthogonalLoop=1;jettySize=auto;html=1;exitX=0.5;exitY=1;exitDx=0;exitDy=0;entryX=0.5;entryY=1;entryDx=0;entryDy=0;curved=1;" edge="1" parent="DkWKNMVOuN_bDpp0_eJ0-1" source="DQ3dP0kI8c5dlUu0x9XH-1" target="DkWKNMVOuN_bDpp0_eJ0-20">
          <mxGeometry relative="1" as="geometry">
            <Array as="points">
              <mxPoint x="460" y="510" />
              <mxPoint x="155" y="510" />
            </Array>
          </mxGeometry>
        </mxCell>
        <mxCell id="DQ3dP0kI8c5dlUu0x9XH-1" value="FullyAssigned" style="rounded=1;whiteSpace=wrap;html=1;fillColor=#d5e8d4;strokeColor=#82b366;" vertex="1" parent="DkWKNMVOuN_bDpp0_eJ0-1">
          <mxGeometry x="410" y="440" width="100" height="30" as="geometry" />
        </mxCell>
      </root>
    </mxGraphModel>
  </diagram>
  <diagram name="JobExecStatusStateMachine" id="Pz4RlwV_eLOodsZfe2yI">
    <mxGraphModel dx="1026" dy="743" grid="1" gridSize="10" guides="1" tooltips="1" connect="1" arrows="1" fold="1" page="1" pageScale="1" pageWidth="850" pageHeight="1100" math="0" shadow="0">
      <root>
        <mxCell id="7psJsi83eTo6VW8FKRi--0" />
        <mxCell id="7psJsi83eTo6VW8FKRi--1" parent="7psJsi83eTo6VW8FKRi--0" />
        <mxCell id="Ekh_4hu0stvIbuUV5pF0-33" value="" style="group" vertex="1" connectable="0" parent="7psJsi83eTo6VW8FKRi--1">
          <mxGeometry x="340" y="130" width="270" height="110" as="geometry" />
        </mxCell>
        <mxCell id="Ekh_4hu0stvIbuUV5pF0-24" value="InProgress" style="rounded=1;whiteSpace=wrap;html=1;fillColor=#ffe6cc;strokeColor=#d79b00;" vertex="1" parent="Ekh_4hu0stvIbuUV5pF0-33">
          <mxGeometry x="180" y="40" width="90" height="30" as="geometry" />
        </mxCell>
        <mxCell id="Ekh_4hu0stvIbuUV5pF0-25" style="edgeStyle=orthogonalEdgeStyle;rounded=0;orthogonalLoop=1;jettySize=auto;html=1;exitX=1;exitY=0.5;exitDx=0;exitDy=0;entryX=0;entryY=0.5;entryDx=0;entryDy=0;" edge="1" parent="Ekh_4hu0stvIbuUV5pF0-33" source="Ekh_4hu0stvIbuUV5pF0-26" target="Ekh_4hu0stvIbuUV5pF0-24">
          <mxGeometry relative="1" as="geometry" />
        </mxCell>
        <mxCell id="Ekh_4hu0stvIbuUV5pF0-26" value="Assigned non-empty" style="rounded=1;whiteSpace=wrap;html=1;fillColor=#ffe6cc;strokeColor=#d79b00;" vertex="1" parent="Ekh_4hu0stvIbuUV5pF0-33">
          <mxGeometry width="90" height="30" as="geometry" />
        </mxCell>
        <mxCell id="Ekh_4hu0stvIbuUV5pF0-27" style="edgeStyle=orthogonalEdgeStyle;rounded=0;orthogonalLoop=1;jettySize=auto;html=1;exitX=1;exitY=0.5;exitDx=0;exitDy=0;" edge="1" parent="Ekh_4hu0stvIbuUV5pF0-33" source="Ekh_4hu0stvIbuUV5pF0-28" target="Ekh_4hu0stvIbuUV5pF0-24">
          <mxGeometry relative="1" as="geometry" />
        </mxCell>
        <mxCell id="Ekh_4hu0stvIbuUV5pF0-28" value="Open&amp;nbsp;&lt;i style=&quot;border-color: var(--border-color);&quot;&gt;either&lt;/i&gt;" style="rounded=1;whiteSpace=wrap;html=1;fillColor=#f5f5f5;fontColor=#333333;strokeColor=#666666;dashed=1;" vertex="1" parent="Ekh_4hu0stvIbuUV5pF0-33">
          <mxGeometry y="40" width="90" height="30" as="geometry" />
        </mxCell>
        <mxCell id="Ekh_4hu0stvIbuUV5pF0-29" style="edgeStyle=orthogonalEdgeStyle;rounded=0;orthogonalLoop=1;jettySize=auto;html=1;exitX=1;exitY=0.5;exitDx=0;exitDy=0;entryX=0;entryY=0.5;entryDx=0;entryDy=0;" edge="1" parent="Ekh_4hu0stvIbuUV5pF0-33" source="Ekh_4hu0stvIbuUV5pF0-30" target="Ekh_4hu0stvIbuUV5pF0-24">
          <mxGeometry relative="1" as="geometry" />
        </mxCell>
        <mxCell id="Ekh_4hu0stvIbuUV5pF0-30" value="Completed &lt;i&gt;either&lt;/i&gt;" style="rounded=1;whiteSpace=wrap;html=1;fillColor=#f5f5f5;strokeColor=#666666;fontColor=#333333;dashed=1;" vertex="1" parent="Ekh_4hu0stvIbuUV5pF0-33">
          <mxGeometry y="80" width="90" height="30" as="geometry" />
        </mxCell>
        <mxCell id="Ekh_4hu0stvIbuUV5pF0-34" value="" style="group" vertex="1" connectable="0" parent="7psJsi83eTo6VW8FKRi--1">
          <mxGeometry x="20" y="130" width="270" height="110" as="geometry" />
        </mxCell>
        <mxCell id="dksanEf-ABbHPmsNa1Y1-12" value="Missing" style="rounded=1;whiteSpace=wrap;html=1;fillColor=#f5f5f5;strokeColor=#666666;fontColor=#333333;" vertex="1" parent="Ekh_4hu0stvIbuUV5pF0-34">
          <mxGeometry x="180" y="40" width="90" height="30" as="geometry" />
        </mxCell>
        <mxCell id="SVSz-ltosw-NIlGVdnXI-3" style="edgeStyle=orthogonalEdgeStyle;rounded=0;orthogonalLoop=1;jettySize=auto;html=1;exitX=1;exitY=0.5;exitDx=0;exitDy=0;entryX=0;entryY=0.5;entryDx=0;entryDy=0;" edge="1" parent="Ekh_4hu0stvIbuUV5pF0-34" source="SVSz-ltosw-NIlGVdnXI-0" target="dksanEf-ABbHPmsNa1Y1-12">
          <mxGeometry relative="1" as="geometry" />
        </mxCell>
        <mxCell id="SVSz-ltosw-NIlGVdnXI-0" value="Assigned empty" style="rounded=1;whiteSpace=wrap;html=1;fillColor=#f5f5f5;fontColor=#333333;strokeColor=#666666;" vertex="1" parent="Ekh_4hu0stvIbuUV5pF0-34">
          <mxGeometry width="90" height="30" as="geometry" />
        </mxCell>
        <mxCell id="SVSz-ltosw-NIlGVdnXI-4" style="edgeStyle=orthogonalEdgeStyle;rounded=0;orthogonalLoop=1;jettySize=auto;html=1;exitX=1;exitY=0.5;exitDx=0;exitDy=0;" edge="1" parent="Ekh_4hu0stvIbuUV5pF0-34" source="SVSz-ltosw-NIlGVdnXI-1" target="dksanEf-ABbHPmsNa1Y1-12">
          <mxGeometry relative="1" as="geometry" />
        </mxCell>
        <mxCell id="SVSz-ltosw-NIlGVdnXI-1" value="Open empty" style="rounded=1;whiteSpace=wrap;html=1;fillColor=#f5f5f5;fontColor=#333333;strokeColor=#666666;" vertex="1" parent="Ekh_4hu0stvIbuUV5pF0-34">
          <mxGeometry y="40" width="90" height="30" as="geometry" />
        </mxCell>
        <mxCell id="SVSz-ltosw-NIlGVdnXI-5" style="edgeStyle=orthogonalEdgeStyle;rounded=0;orthogonalLoop=1;jettySize=auto;html=1;exitX=1;exitY=0.5;exitDx=0;exitDy=0;entryX=0;entryY=0.5;entryDx=0;entryDy=0;" edge="1" parent="Ekh_4hu0stvIbuUV5pF0-34" source="SVSz-ltosw-NIlGVdnXI-2" target="dksanEf-ABbHPmsNa1Y1-12">
          <mxGeometry relative="1" as="geometry" />
        </mxCell>
        <mxCell id="SVSz-ltosw-NIlGVdnXI-2" value="Completed empty" style="rounded=1;whiteSpace=wrap;html=1;fillColor=#f5f5f5;fontColor=#333333;strokeColor=#666666;" vertex="1" parent="Ekh_4hu0stvIbuUV5pF0-34">
          <mxGeometry y="80" width="90" height="30" as="geometry" />
        </mxCell>
        <mxCell id="Ekh_4hu0stvIbuUV5pF0-35" value="" style="group" vertex="1" connectable="0" parent="7psJsi83eTo6VW8FKRi--1">
          <mxGeometry x="690" y="270" width="270" height="110" as="geometry" />
        </mxCell>
        <mxCell id="SVSz-ltosw-NIlGVdnXI-6" value="Done" style="rounded=1;whiteSpace=wrap;html=1;fillColor=#d5e8d4;strokeColor=#82b366;" vertex="1" parent="Ekh_4hu0stvIbuUV5pF0-35">
          <mxGeometry x="180" y="40" width="90" height="30" as="geometry" />
        </mxCell>
        <mxCell id="SVSz-ltosw-NIlGVdnXI-7" style="edgeStyle=orthogonalEdgeStyle;rounded=0;orthogonalLoop=1;jettySize=auto;html=1;exitX=1;exitY=0.5;exitDx=0;exitDy=0;entryX=0;entryY=0.5;entryDx=0;entryDy=0;" edge="1" parent="Ekh_4hu0stvIbuUV5pF0-35" source="SVSz-ltosw-NIlGVdnXI-8" target="SVSz-ltosw-NIlGVdnXI-6">
          <mxGeometry relative="1" as="geometry" />
        </mxCell>
        <mxCell id="SVSz-ltosw-NIlGVdnXI-8" value="Assigned empty" style="rounded=1;whiteSpace=wrap;html=1;fillColor=#f5f5f5;fontColor=#333333;strokeColor=#666666;" vertex="1" parent="Ekh_4hu0stvIbuUV5pF0-35">
          <mxGeometry width="90" height="30" as="geometry" />
        </mxCell>
        <mxCell id="SVSz-ltosw-NIlGVdnXI-9" style="edgeStyle=orthogonalEdgeStyle;rounded=0;orthogonalLoop=1;jettySize=auto;html=1;exitX=1;exitY=0.5;exitDx=0;exitDy=0;" edge="1" parent="Ekh_4hu0stvIbuUV5pF0-35" source="SVSz-ltosw-NIlGVdnXI-10" target="SVSz-ltosw-NIlGVdnXI-6">
          <mxGeometry relative="1" as="geometry" />
        </mxCell>
        <mxCell id="SVSz-ltosw-NIlGVdnXI-10" value="Open empty" style="rounded=1;whiteSpace=wrap;html=1;fillColor=#f5f5f5;fontColor=#333333;strokeColor=#666666;" vertex="1" parent="Ekh_4hu0stvIbuUV5pF0-35">
          <mxGeometry y="40" width="90" height="30" as="geometry" />
        </mxCell>
        <mxCell id="SVSz-ltosw-NIlGVdnXI-11" style="edgeStyle=orthogonalEdgeStyle;rounded=0;orthogonalLoop=1;jettySize=auto;html=1;exitX=1;exitY=0.5;exitDx=0;exitDy=0;entryX=0;entryY=0.5;entryDx=0;entryDy=0;" edge="1" parent="Ekh_4hu0stvIbuUV5pF0-35" source="SVSz-ltosw-NIlGVdnXI-12" target="SVSz-ltosw-NIlGVdnXI-6">
          <mxGeometry relative="1" as="geometry" />
        </mxCell>
        <mxCell id="SVSz-ltosw-NIlGVdnXI-12" value="Completed non-empty" style="rounded=1;whiteSpace=wrap;html=1;fillColor=#d5e8d4;strokeColor=#82b366;" vertex="1" parent="Ekh_4hu0stvIbuUV5pF0-35">
          <mxGeometry y="80" width="90" height="30" as="geometry" />
        </mxCell>
        <mxCell id="Ekh_4hu0stvIbuUV5pF0-37" value="" style="group" vertex="1" connectable="0" parent="7psJsi83eTo6VW8FKRi--1">
          <mxGeometry x="690" y="120" width="270" height="110" as="geometry" />
        </mxCell>
        <mxCell id="SVSz-ltosw-NIlGVdnXI-13" value="Halted" style="rounded=1;whiteSpace=wrap;html=1;fillColor=#fff2cc;strokeColor=#d6b656;" vertex="1" parent="Ekh_4hu0stvIbuUV5pF0-37">
          <mxGeometry x="180" y="40" width="90" height="30" as="geometry" />
        </mxCell>
        <mxCell id="SVSz-ltosw-NIlGVdnXI-14" style="edgeStyle=orthogonalEdgeStyle;rounded=0;orthogonalLoop=1;jettySize=auto;html=1;exitX=1;exitY=0.5;exitDx=0;exitDy=0;entryX=0;entryY=0.5;entryDx=0;entryDy=0;" edge="1" parent="Ekh_4hu0stvIbuUV5pF0-37" source="SVSz-ltosw-NIlGVdnXI-15" target="SVSz-ltosw-NIlGVdnXI-13">
          <mxGeometry relative="1" as="geometry" />
        </mxCell>
        <mxCell id="SVSz-ltosw-NIlGVdnXI-15" value="Assigned empty" style="rounded=1;whiteSpace=wrap;html=1;fillColor=#f5f5f5;fontColor=#333333;strokeColor=#666666;" vertex="1" parent="Ekh_4hu0stvIbuUV5pF0-37">
          <mxGeometry width="90" height="30" as="geometry" />
        </mxCell>
        <mxCell id="SVSz-ltosw-NIlGVdnXI-16" style="edgeStyle=orthogonalEdgeStyle;rounded=0;orthogonalLoop=1;jettySize=auto;html=1;exitX=1;exitY=0.5;exitDx=0;exitDy=0;" edge="1" parent="Ekh_4hu0stvIbuUV5pF0-37" source="SVSz-ltosw-NIlGVdnXI-17" target="SVSz-ltosw-NIlGVdnXI-13">
          <mxGeometry relative="1" as="geometry" />
        </mxCell>
        <mxCell id="SVSz-ltosw-NIlGVdnXI-17" value="Open non-empty" style="rounded=1;whiteSpace=wrap;html=1;fillColor=#fff2cc;strokeColor=#d6b656;" vertex="1" parent="Ekh_4hu0stvIbuUV5pF0-37">
          <mxGeometry y="40" width="90" height="30" as="geometry" />
        </mxCell>
        <mxCell id="Ekh_4hu0stvIbuUV5pF0-32" style="edgeStyle=orthogonalEdgeStyle;rounded=0;orthogonalLoop=1;jettySize=auto;html=1;exitX=1;exitY=0.5;exitDx=0;exitDy=0;entryX=0;entryY=0.5;entryDx=0;entryDy=0;" edge="1" parent="Ekh_4hu0stvIbuUV5pF0-37" source="Ekh_4hu0stvIbuUV5pF0-31" target="SVSz-ltosw-NIlGVdnXI-13">
          <mxGeometry relative="1" as="geometry" />
        </mxCell>
        <mxCell id="Ekh_4hu0stvIbuUV5pF0-31" value="Completed &lt;i&gt;either&lt;/i&gt;" style="rounded=1;whiteSpace=wrap;html=1;dashed=1;fillColor=#f5f5f5;fontColor=#333333;strokeColor=#666666;" vertex="1" parent="Ekh_4hu0stvIbuUV5pF0-37">
          <mxGeometry y="80" width="90" height="30" as="geometry" />
        </mxCell>
        <mxCell id="Ekh_4hu0stvIbuUV5pF0-38" style="edgeStyle=orthogonalEdgeStyle;rounded=0;orthogonalLoop=1;jettySize=auto;html=1;exitX=0.5;exitY=0;exitDx=0;exitDy=0;entryX=0.5;entryY=0;entryDx=0;entryDy=0;curved=1;" edge="1" parent="7psJsi83eTo6VW8FKRi--1" source="dksanEf-ABbHPmsNa1Y1-12" target="Ekh_4hu0stvIbuUV5pF0-24">
          <mxGeometry relative="1" as="geometry">
            <Array as="points">
              <mxPoint x="245" y="100" />
              <mxPoint x="565" y="100" />
            </Array>
          </mxGeometry>
        </mxCell>
        <mxCell id="Ekh_4hu0stvIbuUV5pF0-41" value="Tasks assigned" style="edgeLabel;html=1;align=center;verticalAlign=middle;resizable=0;points=[];" vertex="1" connectable="0" parent="Ekh_4hu0stvIbuUV5pF0-38">
          <mxGeometry x="-0.0674" y="2" relative="1" as="geometry">
            <mxPoint x="1" as="offset" />
          </mxGeometry>
        </mxCell>
        <mxCell id="Ekh_4hu0stvIbuUV5pF0-39" style="edgeStyle=orthogonalEdgeStyle;rounded=0;orthogonalLoop=1;jettySize=auto;html=1;exitX=0.5;exitY=0;exitDx=0;exitDy=0;entryX=0.5;entryY=0;entryDx=0;entryDy=0;curved=1;" edge="1" parent="7psJsi83eTo6VW8FKRi--1" source="Ekh_4hu0stvIbuUV5pF0-24" target="SVSz-ltosw-NIlGVdnXI-13">
          <mxGeometry relative="1" as="geometry">
            <Array as="points">
              <mxPoint x="565" y="100" />
              <mxPoint x="915" y="100" />
            </Array>
          </mxGeometry>
        </mxCell>
        <mxCell id="Ekh_4hu0stvIbuUV5pF0-42" value="Nothing assigned, but some open" style="edgeLabel;html=1;align=center;verticalAlign=middle;resizable=0;points=[];" vertex="1" connectable="0" parent="Ekh_4hu0stvIbuUV5pF0-39">
          <mxGeometry x="0.0146" y="4" relative="1" as="geometry">
            <mxPoint as="offset" />
          </mxGeometry>
        </mxCell>
        <mxCell id="Ekh_4hu0stvIbuUV5pF0-40" style="edgeStyle=orthogonalEdgeStyle;rounded=0;orthogonalLoop=1;jettySize=auto;html=1;exitX=0.5;exitY=1;exitDx=0;exitDy=0;curved=1;" edge="1" parent="7psJsi83eTo6VW8FKRi--1" source="Ekh_4hu0stvIbuUV5pF0-24" target="SVSz-ltosw-NIlGVdnXI-6">
          <mxGeometry relative="1" as="geometry" />
        </mxCell>
        <mxCell id="Ekh_4hu0stvIbuUV5pF0-43" value="Nothing assigned and open, all completed" style="edgeLabel;html=1;align=center;verticalAlign=middle;resizable=0;points=[];" vertex="1" connectable="0" parent="Ekh_4hu0stvIbuUV5pF0-40">
          <mxGeometry x="-0.1326" relative="1" as="geometry">
            <mxPoint x="50" as="offset" />
          </mxGeometry>
        </mxCell>
        <mxCell id="Ekh_4hu0stvIbuUV5pF0-46" style="edgeStyle=orthogonalEdgeStyle;rounded=0;orthogonalLoop=1;jettySize=auto;html=1;exitX=1;exitY=0.5;exitDx=0;exitDy=0;entryX=0.5;entryY=0;entryDx=0;entryDy=0;curved=1;" edge="1" parent="7psJsi83eTo6VW8FKRi--1" source="SVSz-ltosw-NIlGVdnXI-13" target="Ekh_4hu0stvIbuUV5pF0-24">
          <mxGeometry relative="1" as="geometry">
            <Array as="points">
              <mxPoint x="980" y="175" />
              <mxPoint x="980" y="30" />
              <mxPoint x="565" y="30" />
            </Array>
          </mxGeometry>
        </mxCell>
        <mxCell id="Ekh_4hu0stvIbuUV5pF0-48" value="Some assigned" style="edgeLabel;html=1;align=center;verticalAlign=middle;resizable=0;points=[];" vertex="1" connectable="0" parent="Ekh_4hu0stvIbuUV5pF0-46">
          <mxGeometry x="0.0597" y="-2" relative="1" as="geometry">
            <mxPoint as="offset" />
          </mxGeometry>
        </mxCell>
      </root>
    </mxGraphModel>
  </diagram>
  <diagram name="WordCountV2" id="Qg2GE-GRb7iHG4rP8uUU">
    <mxGraphModel dx="1234" dy="1156" grid="1" gridSize="10" guides="1" tooltips="1" connect="1" arrows="1" fold="1" page="1" pageScale="1" pageWidth="850" pageHeight="1100" math="0" shadow="0">
      <root>
        <mxCell id="NP8xxNeJumdL-yK50Gk2-0" />
        <mxCell id="NP8xxNeJumdL-yK50Gk2-1" value="Untitled Layer" style="locked=1;" parent="NP8xxNeJumdL-yK50Gk2-0" />
        <mxCell id="NP8xxNeJumdL-yK50Gk2-2" value="" style="rounded=1;whiteSpace=wrap;html=1;" vertex="1" parent="NP8xxNeJumdL-yK50Gk2-1">
          <mxGeometry x="20" y="280" width="150" height="200" as="geometry" />
        </mxCell>
        <mxCell id="NP8xxNeJumdL-yK50Gk2-3" style="" parent="NP8xxNeJumdL-yK50Gk2-0" />
        <mxCell id="NP8xxNeJumdL-yK50Gk2-4" style="rounded=0;orthogonalLoop=1;jettySize=auto;html=1;exitX=1;exitY=0.5;exitDx=0;exitDy=0;entryX=0;entryY=0.5;entryDx=0;entryDy=0;" edge="1" parent="NP8xxNeJumdL-yK50Gk2-3" source="NP8xxNeJumdL-yK50Gk2-5" target="NP8xxNeJumdL-yK50Gk2-11">
          <mxGeometry relative="1" as="geometry" />
        </mxCell>
        <mxCell id="NP8xxNeJumdL-yK50Gk2-5" value="Deer Bear River" style="rounded=0;whiteSpace=wrap;html=1;" vertex="1" parent="NP8xxNeJumdL-yK50Gk2-3">
          <mxGeometry x="30" y="310" width="120" height="30" as="geometry" />
        </mxCell>
        <mxCell id="NP8xxNeJumdL-yK50Gk2-6" style="edgeStyle=orthogonalEdgeStyle;rounded=0;orthogonalLoop=1;jettySize=auto;html=1;exitX=1;exitY=0.5;exitDx=0;exitDy=0;" edge="1" parent="NP8xxNeJumdL-yK50Gk2-3" source="NP8xxNeJumdL-yK50Gk2-7" target="NP8xxNeJumdL-yK50Gk2-13">
          <mxGeometry relative="1" as="geometry" />
        </mxCell>
        <mxCell id="NP8xxNeJumdL-yK50Gk2-7" value="Car Car River" style="rounded=0;whiteSpace=wrap;html=1;" vertex="1" parent="NP8xxNeJumdL-yK50Gk2-3">
          <mxGeometry x="30" y="370" width="120" height="30" as="geometry" />
        </mxCell>
        <mxCell id="NP8xxNeJumdL-yK50Gk2-8" style="rounded=0;orthogonalLoop=1;jettySize=auto;html=1;exitX=1;exitY=0.5;exitDx=0;exitDy=0;entryX=0;entryY=0.5;entryDx=0;entryDy=0;" edge="1" parent="NP8xxNeJumdL-yK50Gk2-3" source="NP8xxNeJumdL-yK50Gk2-9" target="NP8xxNeJumdL-yK50Gk2-15">
          <mxGeometry relative="1" as="geometry" />
        </mxCell>
        <mxCell id="NP8xxNeJumdL-yK50Gk2-9" value="Deer Car Bear" style="rounded=0;whiteSpace=wrap;html=1;" vertex="1" parent="NP8xxNeJumdL-yK50Gk2-3">
          <mxGeometry x="30" y="430" width="120" height="30" as="geometry" />
        </mxCell>
        <mxCell id="NP8xxNeJumdL-yK50Gk2-10" style="rounded=0;orthogonalLoop=1;jettySize=auto;html=1;exitX=1;exitY=0.5;exitDx=0;exitDy=0;" edge="1" parent="NP8xxNeJumdL-yK50Gk2-3" source="NP8xxNeJumdL-yK50Gk2-11" target="NP8xxNeJumdL-yK50Gk2-17">
          <mxGeometry relative="1" as="geometry" />
        </mxCell>
        <mxCell id="L7XoS2QPH7Axn42jj8RH-6" style="rounded=0;orthogonalLoop=1;jettySize=auto;html=1;exitX=1;exitY=0.5;exitDx=0;exitDy=0;entryX=0;entryY=0.5;entryDx=0;entryDy=0;" edge="1" parent="NP8xxNeJumdL-yK50Gk2-3" source="NP8xxNeJumdL-yK50Gk2-11" target="L7XoS2QPH7Axn42jj8RH-0">
          <mxGeometry relative="1" as="geometry" />
        </mxCell>
        <mxCell id="NP8xxNeJumdL-yK50Gk2-11" value="Deer Bear River" style="rounded=0;whiteSpace=wrap;html=1;" vertex="1" parent="NP8xxNeJumdL-yK50Gk2-3">
          <mxGeometry x="210" y="290" width="120" height="30" as="geometry" />
        </mxCell>
        <mxCell id="NP8xxNeJumdL-yK50Gk2-12" style="rounded=0;orthogonalLoop=1;jettySize=auto;html=1;exitX=1;exitY=0.5;exitDx=0;exitDy=0;" edge="1" parent="NP8xxNeJumdL-yK50Gk2-3" source="NP8xxNeJumdL-yK50Gk2-13" target="NP8xxNeJumdL-yK50Gk2-19">
          <mxGeometry relative="1" as="geometry" />
        </mxCell>
        <mxCell id="L7XoS2QPH7Axn42jj8RH-5" style="rounded=0;orthogonalLoop=1;jettySize=auto;html=1;exitX=1;exitY=0.5;exitDx=0;exitDy=0;entryX=0;entryY=0.5;entryDx=0;entryDy=0;" edge="1" parent="NP8xxNeJumdL-yK50Gk2-3" source="NP8xxNeJumdL-yK50Gk2-13" target="L7XoS2QPH7Axn42jj8RH-1">
          <mxGeometry relative="1" as="geometry" />
        </mxCell>
        <mxCell id="NP8xxNeJumdL-yK50Gk2-13" value="Car Car River" style="rounded=0;whiteSpace=wrap;html=1;" vertex="1" parent="NP8xxNeJumdL-yK50Gk2-3">
          <mxGeometry x="210" y="370" width="120" height="30" as="geometry" />
        </mxCell>
        <mxCell id="NP8xxNeJumdL-yK50Gk2-14" style="rounded=0;orthogonalLoop=1;jettySize=auto;html=1;exitX=1;exitY=0.5;exitDx=0;exitDy=0;" edge="1" parent="NP8xxNeJumdL-yK50Gk2-3" source="NP8xxNeJumdL-yK50Gk2-15" target="NP8xxNeJumdL-yK50Gk2-21">
          <mxGeometry relative="1" as="geometry" />
        </mxCell>
        <mxCell id="NP8xxNeJumdL-yK50Gk2-15" value="Deer Car Bear" style="rounded=0;whiteSpace=wrap;html=1;" vertex="1" parent="NP8xxNeJumdL-yK50Gk2-3">
          <mxGeometry x="210" y="450" width="120" height="30" as="geometry" />
        </mxCell>
        <mxCell id="L7XoS2QPH7Axn42jj8RH-10" style="rounded=0;orthogonalLoop=1;jettySize=auto;html=1;exitX=1;exitY=0.5;exitDx=0;exitDy=0;entryX=0;entryY=0.5;entryDx=0;entryDy=0;fillColor=#fff2cc;strokeColor=#d6b656;" edge="1" parent="NP8xxNeJumdL-yK50Gk2-3" source="NP8xxNeJumdL-yK50Gk2-17" target="L7XoS2QPH7Axn42jj8RH-7">
          <mxGeometry relative="1" as="geometry" />
        </mxCell>
        <mxCell id="NP8xxNeJumdL-yK50Gk2-17" value="Bear, 1&lt;br&gt;Deer, 1&lt;br&gt;" style="rounded=0;whiteSpace=wrap;html=1;fillColor=#fff2cc;strokeColor=#d6b656;" vertex="1" parent="NP8xxNeJumdL-yK50Gk2-3">
          <mxGeometry x="420" y="270" width="120" height="30" as="geometry" />
        </mxCell>
        <mxCell id="L7XoS2QPH7Axn42jj8RH-11" style="rounded=0;orthogonalLoop=1;jettySize=auto;html=1;exitX=1;exitY=0.5;exitDx=0;exitDy=0;fillColor=#fff2cc;strokeColor=#d6b656;" edge="1" parent="NP8xxNeJumdL-yK50Gk2-3" source="NP8xxNeJumdL-yK50Gk2-19" target="L7XoS2QPH7Axn42jj8RH-7">
          <mxGeometry relative="1" as="geometry" />
        </mxCell>
        <mxCell id="NP8xxNeJumdL-yK50Gk2-19" value="Car, 2" style="rounded=0;whiteSpace=wrap;html=1;fillColor=#fff2cc;strokeColor=#d6b656;" vertex="1" parent="NP8xxNeJumdL-yK50Gk2-3">
          <mxGeometry x="420" y="350" width="120" height="30" as="geometry" />
        </mxCell>
        <mxCell id="L7XoS2QPH7Axn42jj8RH-12" style="rounded=0;orthogonalLoop=1;jettySize=auto;html=1;exitX=1;exitY=0.5;exitDx=0;exitDy=0;entryX=0;entryY=0.5;entryDx=0;entryDy=0;fillColor=#fff2cc;strokeColor=#d6b656;" edge="1" parent="NP8xxNeJumdL-yK50Gk2-3" source="NP8xxNeJumdL-yK50Gk2-21" target="L7XoS2QPH7Axn42jj8RH-7">
          <mxGeometry relative="1" as="geometry" />
        </mxCell>
        <mxCell id="NP8xxNeJumdL-yK50Gk2-21" value="Bear, 1&lt;br&gt;Car, 1&lt;br&gt;Deer, 1" style="rounded=0;whiteSpace=wrap;html=1;fillColor=#fff2cc;strokeColor=#d6b656;" vertex="1" parent="NP8xxNeJumdL-yK50Gk2-3">
          <mxGeometry x="420" y="440" width="120" height="50" as="geometry" />
        </mxCell>
        <mxCell id="NP8xxNeJumdL-yK50Gk2-22" value="Bear, 2&lt;br&gt;Car, 3&lt;br&gt;Deer, 2&lt;br&gt;River, 2" style="rounded=0;whiteSpace=wrap;html=1;" vertex="1" parent="NP8xxNeJumdL-yK50Gk2-3">
          <mxGeometry x="780" y="320" width="120" height="80" as="geometry" />
        </mxCell>
        <mxCell id="78D0JAKVWxLRD6H0bkiT-1" value="Worker" style="text;html=1;strokeColor=none;fillColor=none;align=center;verticalAlign=middle;whiteSpace=wrap;rounded=0;fontStyle=1" vertex="1" parent="NP8xxNeJumdL-yK50Gk2-3">
          <mxGeometry x="240" y="220" width="60" height="30" as="geometry" />
        </mxCell>
        <mxCell id="ZOH9xCj6sxJJCKBjYgi5-0" value="File System Output&lt;br&gt;(Partitioned)" style="text;html=1;strokeColor=none;fillColor=none;align=center;verticalAlign=middle;whiteSpace=wrap;rounded=0;fontStyle=1" vertex="1" parent="NP8xxNeJumdL-yK50Gk2-3">
          <mxGeometry x="415" y="220" width="130" height="30" as="geometry" />
        </mxCell>
        <mxCell id="ZOH9xCj6sxJJCKBjYgi5-1" value="Input" style="text;html=1;strokeColor=none;fillColor=none;align=center;verticalAlign=middle;whiteSpace=wrap;rounded=0;fontStyle=1" vertex="1" parent="NP8xxNeJumdL-yK50Gk2-3">
          <mxGeometry x="60" y="220" width="60" height="30" as="geometry" />
        </mxCell>
        <mxCell id="ZOH9xCj6sxJJCKBjYgi5-2" value="Leader" style="text;html=1;strokeColor=none;fillColor=none;align=center;verticalAlign=middle;whiteSpace=wrap;rounded=0;fontStyle=1" vertex="1" parent="NP8xxNeJumdL-yK50Gk2-3">
          <mxGeometry x="810" y="220" width="90" height="30" as="geometry" />
        </mxCell>
        <mxCell id="L7XoS2QPH7Axn42jj8RH-13" style="rounded=0;orthogonalLoop=1;jettySize=auto;html=1;exitX=1;exitY=0.5;exitDx=0;exitDy=0;entryX=0;entryY=0.5;entryDx=0;entryDy=0;fillColor=#ffe6cc;strokeColor=#d79b00;" edge="1" parent="NP8xxNeJumdL-yK50Gk2-3" source="L7XoS2QPH7Axn42jj8RH-0" target="L7XoS2QPH7Axn42jj8RH-9">
          <mxGeometry relative="1" as="geometry" />
        </mxCell>
        <mxCell id="L7XoS2QPH7Axn42jj8RH-0" value="River,1" style="rounded=0;whiteSpace=wrap;html=1;fillColor=#ffe6cc;strokeColor=#d79b00;" vertex="1" parent="NP8xxNeJumdL-yK50Gk2-3">
          <mxGeometry x="420" y="310" width="120" height="30" as="geometry" />
        </mxCell>
        <mxCell id="L7XoS2QPH7Axn42jj8RH-14" style="rounded=0;orthogonalLoop=1;jettySize=auto;html=1;exitX=1;exitY=0.5;exitDx=0;exitDy=0;entryX=0;entryY=0.5;entryDx=0;entryDy=0;fillColor=#ffe6cc;strokeColor=#d79b00;" edge="1" parent="NP8xxNeJumdL-yK50Gk2-3" source="L7XoS2QPH7Axn42jj8RH-1" target="L7XoS2QPH7Axn42jj8RH-9">
          <mxGeometry relative="1" as="geometry" />
        </mxCell>
        <mxCell id="L7XoS2QPH7Axn42jj8RH-1" value="River,1" style="rounded=0;whiteSpace=wrap;html=1;fillColor=#ffe6cc;strokeColor=#d79b00;" vertex="1" parent="NP8xxNeJumdL-yK50Gk2-3">
          <mxGeometry x="420" y="385" width="120" height="30" as="geometry" />
        </mxCell>
        <mxCell id="L7XoS2QPH7Axn42jj8RH-16" style="rounded=0;orthogonalLoop=1;jettySize=auto;html=1;exitX=1;exitY=0.5;exitDx=0;exitDy=0;entryX=0;entryY=0.5;entryDx=0;entryDy=0;" edge="1" parent="NP8xxNeJumdL-yK50Gk2-3" source="L7XoS2QPH7Axn42jj8RH-7" target="NP8xxNeJumdL-yK50Gk2-22">
          <mxGeometry relative="1" as="geometry" />
        </mxCell>
        <mxCell id="L7XoS2QPH7Axn42jj8RH-7" value="Bear, 2&lt;br&gt;Car, 3&lt;br&gt;Deer, 2" style="rounded=0;whiteSpace=wrap;html=1;fillColor=#fff2cc;strokeColor=#d6b656;" vertex="1" parent="NP8xxNeJumdL-yK50Gk2-3">
          <mxGeometry x="585" y="295" width="120" height="55" as="geometry" />
        </mxCell>
        <mxCell id="L7XoS2QPH7Axn42jj8RH-8" value="Partition Worker" style="text;html=1;strokeColor=none;fillColor=none;align=center;verticalAlign=middle;whiteSpace=wrap;rounded=0;fontStyle=1" vertex="1" parent="NP8xxNeJumdL-yK50Gk2-3">
          <mxGeometry x="580" y="220" width="130" height="30" as="geometry" />
        </mxCell>
        <mxCell id="L7XoS2QPH7Axn42jj8RH-15" style="rounded=0;orthogonalLoop=1;jettySize=auto;html=1;exitX=1;exitY=0.5;exitDx=0;exitDy=0;entryX=0;entryY=0.5;entryDx=0;entryDy=0;" edge="1" parent="NP8xxNeJumdL-yK50Gk2-3" source="L7XoS2QPH7Axn42jj8RH-9" target="NP8xxNeJumdL-yK50Gk2-22">
          <mxGeometry relative="1" as="geometry" />
        </mxCell>
        <mxCell id="L7XoS2QPH7Axn42jj8RH-9" value="River,2" style="rounded=0;whiteSpace=wrap;html=1;fillColor=#ffe6cc;strokeColor=#d79b00;" vertex="1" parent="NP8xxNeJumdL-yK50Gk2-3">
          <mxGeometry x="585" y="385" width="120" height="35" as="geometry" />
        </mxCell>
      </root>
    </mxGraphModel>
  </diagram>
</mxfile>
